<svg width="24" height="24" viewBox="0 0 24 24" fill="none" xmlns="http://www.w3.org/2000/svg">
<circle cx="12" cy="12" r="12" fill="#1B92D1"/>
<path d="M16.9559 7.15426C15.381 7.80655 8.62801 10.6037 6.76215 11.3661C5.51082 11.8544 6.24337 12.3123 6.24337 12.3123C6.24337 12.3123 7.31153 12.6785 8.22724 12.9532C9.14282 13.2279 9.63114 12.9227 9.63114 12.9227L13.9345 10.0233C15.4605 8.98556 15.0943 9.84009 14.728 10.2064C13.9345 11 12.6221 12.2512 11.5234 13.2585C11.035 13.6857 11.2791 14.0519 11.4929 14.2351C12.2864 14.9066 14.4534 16.28 14.5754 16.3715C15.2201 16.828 16.4884 17.485 16.6813 16.0969L17.4443 11.3052C17.6885 9.68764 17.9326 8.19209 17.963 7.76482C18.0547 6.727 16.9559 7.15426 16.9559 7.15426Z" fill="white"/>
</svg>
