<svg width="24" height="24" viewBox="0 0 24 24" fill="none" xmlns="http://www.w3.org/2000/svg">
<path d="M24 12C24 5.37258 18.6274 0 12 0C5.37258 0 0 5.37258 0 12C0 18.6274 5.37258 24 12 24C18.6274 24 24 18.6274 24 12Z" fill="#675DA9"/>
<path d="M17.8765 6.09225C17.4796 5.72735 15.8726 4.55891 12.2905 4.54291C12.2905 4.54291 8.06812 4.28681 6.00977 6.1755C4.86374 7.3215 4.4604 8.99575 4.41878 11.0765C4.37717 13.1541 4.32275 17.0499 8.07772 18.1063H8.08092L8.07772 19.7164C8.07772 19.7164 8.05532 20.3695 8.48427 20.5007C9.00287 20.6608 9.31017 20.1646 9.80637 19.63C10.0785 19.3355 10.453 18.9066 10.7379 18.5769C13.3052 18.7913 15.2804 18.2984 15.5044 18.2247C16.023 18.0551 18.9585 17.6805 19.4355 13.7847C19.9285 9.7768 19.1954 7.2383 17.8765 6.09225ZM18.3119 13.503C17.9085 16.7554 15.53 16.9603 15.0915 17.1011C14.9058 17.1619 13.1708 17.5941 10.9876 17.45C10.9876 17.45 9.36137 19.4124 8.85562 19.9214C8.77557 20.0014 8.68272 20.0333 8.62192 20.0173C8.53547 19.9949 8.50987 19.8925 8.51307 19.7421C8.51307 19.5244 8.52587 17.0627 8.52587 17.0627C8.52267 17.0627 8.52267 17.0627 8.52587 17.0627C5.34712 16.1824 5.53277 12.866 5.56802 11.1309C5.60322 9.3959 5.92972 7.97135 6.89967 7.0142C8.63792 5.43925 12.2264 5.6729 12.2264 5.6729C15.2547 5.6857 16.7049 6.59805 17.041 6.90215C18.1582 7.8625 18.728 10.1514 18.3119 13.503Z" fill="white"/>
<path d="M13.7661 11.1917C13.6604 11.1917 13.5708 11.1085 13.5644 10.9996C13.5292 10.3114 13.2059 9.97529 12.5464 9.94009C12.4344 9.93369 12.3479 9.83764 12.3543 9.72559C12.3607 9.61354 12.4568 9.52714 12.5688 9.53354C13.4395 9.58154 13.9261 10.0809 13.9709 10.9772C13.9773 11.0893 13.8909 11.1853 13.7789 11.1885C13.7725 11.1917 13.7693 11.1917 13.7661 11.1917Z" fill="white"/>
<path d="M14.8038 11.5376H14.8006C14.6886 11.5344 14.599 11.4416 14.6022 11.3296C14.6182 10.6381 14.4197 10.0779 13.9971 9.61691C13.5778 9.15596 12.9984 8.90626 12.2333 8.85186C12.1212 8.84226 12.038 8.74621 12.0476 8.63416C12.0572 8.52211 12.1533 8.43891 12.2653 8.44851C13.1296 8.51251 13.8115 8.81341 14.298 9.34481C14.7878 9.87941 15.0247 10.5485 15.0087 11.3392C15.0055 11.4512 14.9127 11.5376 14.8038 11.5376Z" fill="white"/>
<path d="M15.8665 11.9535C15.7544 11.9535 15.6648 11.8639 15.6648 11.7518C15.6552 10.513 15.2998 9.56865 14.5764 8.8612C13.8625 8.16335 12.9566 7.808 11.8906 7.7984C11.7786 7.7984 11.6889 7.7056 11.6889 7.59355C11.6889 7.4815 11.7818 7.39185 11.8906 7.39185C13.0654 7.40145 14.0642 7.7952 14.8549 8.5699C15.6488 9.3446 16.0553 10.4137 16.0681 11.7454C16.0713 11.8607 15.9817 11.9535 15.8665 11.9535C15.8697 11.9535 15.8697 11.9535 15.8665 11.9535ZM12.5949 13.6981C12.5949 13.6981 12.8798 13.7237 13.0334 13.5348L13.3311 13.1603C13.4752 12.9746 13.8241 12.8562 14.1634 13.0451C14.3523 13.1507 14.6948 13.362 14.9061 13.5188C15.1334 13.6853 15.5944 14.0694 15.5976 14.0726C15.8184 14.2583 15.8697 14.5304 15.7192 14.8217C15.7192 14.8217 15.7192 14.8249 15.7192 14.8281C15.5655 15.1002 15.3575 15.3563 15.0982 15.5932C15.095 15.5932 15.095 15.5964 15.0918 15.5964C14.8773 15.7757 14.666 15.8781 14.4611 15.9005C14.4355 15.9069 14.4067 15.9069 14.3683 15.9069C14.2787 15.9069 14.189 15.8941 14.0994 15.8653L14.093 15.8557C13.7729 15.7661 13.2415 15.542 12.358 15.0522C11.7818 14.7353 11.3048 14.412 10.8982 14.0886C10.6838 13.919 10.4661 13.7301 10.242 13.506C10.2356 13.4996 10.226 13.49 10.2196 13.4836C10.2132 13.4772 10.2036 13.4676 10.1972 13.4612C10.1908 13.4548 10.1812 13.4452 10.1748 13.4388C10.1684 13.4324 10.1588 13.4228 10.1524 13.4164C9.93147 13.1923 9.73941 12.9746 9.56976 12.7602C9.24641 12.3568 8.92312 11.8766 8.60622 11.3004C8.11641 10.4137 7.89231 9.88235 7.80271 9.5654L7.79311 9.559C7.76426 9.4694 7.75146 9.37975 7.75146 9.2901C7.75146 9.2517 7.75146 9.2229 7.75786 9.1973C7.78351 8.9892 7.88592 8.7811 8.06202 8.56665C8.06202 8.56345 8.06521 8.56345 8.06521 8.56025C8.30206 8.29775 8.55816 8.09285 8.83026 7.9392C8.83026 7.9392 8.83346 7.9392 8.83666 7.9392C9.12476 7.78875 9.39686 7.84 9.58576 8.06085C9.58576 8.06085 9.97311 8.52505 10.1396 8.7523C10.2964 8.9668 10.5077 9.3061 10.6133 9.495C10.8022 9.8343 10.6838 10.1832 10.4981 10.3273L10.1236 10.625C9.93467 10.7786 9.96026 11.0635 9.96026 11.0635C9.96026 11.0635 10.5141 13.1699 12.5949 13.6981Z" fill="white"/>
</svg>
