<svg width="24" height="24" viewBox="0 0 24 24" fill="none" xmlns="http://www.w3.org/2000/svg">
<circle cx="12" cy="12" r="12" fill="#48C856"/>
<g clip-path="url(#clip0_35_21)">
<path d="M12.0017 5.6001H11.9985C8.46971 5.6001 5.60011 8.4705 5.60011 12.0001C5.59791 13.3481 6.02463 14.6619 6.81851 15.7513L6.02091 18.1289L8.48091 17.3425C9.5244 18.0348 10.7494 18.4028 12.0017 18.4001C15.5305 18.4001 18.4001 15.5289 18.4001 12.0001C18.4001 8.4713 15.5305 5.6001 12.0017 5.6001V5.6001Z" fill="white"/>
<path d="M15.7257 14.6377C15.5713 15.0737 14.9585 15.4353 14.4697 15.5409C14.1353 15.6121 13.6985 15.6689 12.2281 15.0593C10.3473 14.2801 9.13614 12.3689 9.04174 12.2449C8.95134 12.1209 8.28174 11.2329 8.28174 10.3145C8.28174 9.39614 8.74814 8.94894 8.93614 8.75694C9.09054 8.59934 9.34574 8.52734 9.59054 8.52734C9.66974 8.52734 9.74094 8.53134 9.80494 8.53454C9.99294 8.54254 10.0873 8.55374 10.2113 8.85054C10.3657 9.22254 10.7417 10.1409 10.7865 10.2353C10.8321 10.3297 10.8777 10.4577 10.8137 10.5817C10.7537 10.7097 10.7009 10.7665 10.6065 10.8753C10.5121 10.9841 10.4225 11.0673 10.3281 11.1841C10.2417 11.2857 10.1441 11.3945 10.2529 11.5825C10.3617 11.7665 10.7377 12.3801 11.2913 12.8729C12.0057 13.5089 12.5849 13.7121 12.7921 13.7985C12.9465 13.8625 13.1305 13.8473 13.2433 13.7273C13.3865 13.5729 13.5633 13.3169 13.7433 13.0649C13.8713 12.8841 14.0329 12.8617 14.2025 12.9257C14.3753 12.9857 15.2897 13.4377 15.4777 13.5313C15.6657 13.6257 15.7897 13.6705 15.8353 13.7497C15.8801 13.8289 15.8801 14.2009 15.7257 14.6377V14.6377Z" fill="#48C856"/>
</g>
<defs>
<clipPath id="clip0_35_21">
<rect width="12.8" height="12.8" fill="white" transform="translate(5.6001 5.6001)"/>
</clipPath>
</defs>
</svg>
