<svg width="16" height="20" viewBox="0 0 16 20" fill="none" xmlns="http://www.w3.org/2000/svg">
<path d="M7.75601 0C3.48001 0 0 3.48 0 7.75601C0 11.928 7.16001 19.552 7.46401 19.872C7.54001 19.952 7.648 20 7.75601 20C7.86401 20 7.972 19.952 8.048 19.872C8.352 19.552 15.512 11.928 15.512 7.75601C15.512 3.48 12.032 0 7.75601 0ZM7.75601 11.0566C5.93394 11.0566 4.45151 9.57598 4.45151 7.75605C4.45151 5.93398 5.93394 4.45156 7.75601 4.45156C9.57827 4.45156 11.0607 5.93398 11.0607 7.75605C11.0607 9.57598 9.57827 11.0566 7.75601 11.0566Z" fill="#E2B542"/>
</svg>
