<?xml version="1.0" standalone="no"?>
<!DOCTYPE svg PUBLIC "-//W3C//DTD SVG 20010904//EN"
 "http://www.w3.org/TR/2001/REC-SVG-20010904/DTD/svg10.dtd">
<svg version="1.0" xmlns="http://www.w3.org/2000/svg"
 width="1024.000000pt" height="1024.000000pt" viewBox="0 0 1024.000000 1024.000000"
 preserveAspectRatio="xMidYMid meet">
<metadata>
Created by potrace 1.14, written by Peter Selinger 2001-2017
</metadata>
<g transform="translate(0.000000,1024.000000) scale(0.100000,-0.100000)"
fill="#000000" stroke="none">
<path d="M4787 8533 c-2 -1 -155 -4 -342 -7 -381 -7 -628 -13 -820 -20 -71 -3
-191 -8 -265 -11 -313 -12 -469 -26 -587 -53 -24 -6 -43 -8 -43 -5 0 3 -7 0
-15 -7 -8 -7 -15 -10 -15 -6 0 3 -16 -1 -37 -9 -20 -8 -38 -13 -40 -11 -15 15
-319 -147 -331 -176 -2 -4 -8 -8 -13 -8 -11 0 -66 -49 -146 -129 -46 -46 -124
-140 -191 -231 -35 -47 -142 -227 -142 -238 0 -7 -3 -12 -7 -12 -5 0 -37 -60
-73 -133 -36 -72 -69 -135 -73 -138 -5 -3 -8 -9 -7 -13 4 -22 -158 -340 -192
-377 -67 -72 -133 -88 -273 -65 -22 3 -68 11 -102 16 -35 6 -91 15 -125 20
-35 6 -81 12 -103 15 -22 3 -50 7 -62 9 -114 23 -328 25 -423 3 -194 -44 -344
-223 -327 -389 8 -72 11 -86 25 -100 7 -7 12 -17 12 -23 0 -13 90 -105 102
-105 5 0 21 -8 35 -17 44 -29 180 -72 273 -87 19 -3 46 -8 60 -11 14 -3 39 -7
55 -9 154 -22 305 -59 484 -118 69 -23 128 -43 131 -43 3 -1 16 -6 30 -12 14
-7 61 -26 105 -43 146 -58 575 -266 745 -362 25 -14 90 -49 145 -78 55 -29
132 -70 172 -91 119 -64 423 -214 503 -249 41 -18 93 -40 115 -50 52 -23 300
-114 300 -111 0 0 23 -6 50 -15 146 -44 241 -27 480 89 94 45 172 85 175 88 3
3 46 26 95 50 50 24 92 46 95 49 5 5 79 43 509 261 282 143 398 162 576 94 70
-26 120 -51 770 -380 270 -137 519 -258 555 -271 75 -25 173 -26 240 -2 8 3
51 18 95 34 44 15 105 38 135 52 265 117 362 163 371 175 3 5 8 8 10 7 7 -4
176 82 389 197 47 25 114 62 150 81 36 19 85 46 110 60 80 44 543 277 615 309
151 67 397 163 419 163 8 0 17 4 20 9 3 5 23 12 43 16 21 4 57 13 81 22 25 8
53 17 63 19 26 6 47 11 99 23 65 17 73 18 210 41 69 12 136 23 150 26 238 40
370 151 373 313 1 65 -28 181 -45 181 -4 0 -8 6 -8 14 0 20 -146 167 -157 158
-2 -1 -23 7 -48 18 -91 39 -258 54 -390 36 -66 -9 -109 -16 -135 -21 -14 -3
-50 -9 -80 -15 -30 -5 -67 -12 -82 -15 -16 -3 -40 -7 -55 -10 -47 -9 -145 -17
-218 -17 -165 -1 -208 36 -297 260 -100 253 -290 587 -437 772 -20 24 -43 53
-51 64 -14 19 -174 180 -211 212 -9 8 -21 14 -27 14 -7 0 -12 4 -12 9 0 12
-190 104 -265 129 -93 30 -177 55 -200 58 -11 2 -29 5 -40 8 -52 14 -249 53
-306 60 -19 3 -47 7 -64 10 -16 2 -57 7 -90 11 -33 3 -73 8 -90 10 -16 3 -66
7 -110 11 -44 3 -102 8 -130 11 -47 5 -1864 11 -1868 6z m1183 -327 c52 -2
158 -7 235 -10 77 -3 172 -8 210 -11 65 -4 204 -13 320 -20 331 -20 482 -39
670 -81 35 -7 119 -40 169 -66 161 -81 289 -209 423 -423 128 -204 644 -1212
656 -1280 1 -6 -34 -9 -103 -6 -58 2 -151 4 -206 6 -56 1 -107 6 -114 10 -9 6
-11 4 -5 -5 5 -9 4 -11 -3 -6 -6 4 -69 9 -139 11 -71 3 -202 7 -293 10 -91 3
-230 7 -310 10 -240 8 -485 15 -680 20 -102 2 -302 7 -445 10 -590 14 -1623
19 -2145 10 -457 -7 -939 -23 -1265 -40 -49 -3 -133 -8 -185 -10 -131 -7 -270
-16 -485 -31 -229 -16 -642 -9 -676 11 -8 6 3 35 57 153 19 41 34 75 34 77 0
2 26 59 58 127 32 67 76 161 97 208 21 47 44 92 51 100 7 8 15 27 19 42 4 15
13 32 21 39 8 6 14 19 14 29 0 10 7 23 15 30 8 7 15 16 15 21 0 8 73 143 118
219 12 19 29 49 38 65 9 17 58 91 108 165 94 139 208 265 286 316 25 16 47 31
50 34 20 24 266 121 335 133 17 3 41 8 55 12 14 3 36 7 50 9 14 2 45 7 70 11
58 9 91 13 170 20 36 3 81 8 100 10 60 8 354 29 700 51 100 6 307 14 515 20
93 3 171 7 172 8 4 4 1111 -3 1223 -8z"/>
<path d="M714 5973 c-56 -10 -374 -301 -374 -343 0 -5 -3 -10 -7 -10 -11 0
-126 -177 -129 -197 -2 -9 -7 -19 -12 -22 -8 -5 -91 -192 -96 -216 -2 -5 -13
-43 -25 -84 -41 -133 -73 -319 -67 -396 11 -165 63 -284 173 -390 50 -50 181
-140 203 -140 3 0 12 -5 20 -10 8 -5 85 -45 170 -88 842 -429 1176 -602 1199
-621 8 -6 16 -10 17 -9 2 1 23 -7 47 -17 61 -27 141 -31 203 -10 53 18 149 65
404 197 85 44 247 127 360 184 113 57 207 106 210 109 3 3 127 66 275 140 149
74 273 139 276 143 3 5 12 9 20 10 8 2 19 6 25 9 5 4 112 58 235 121 236 120
255 130 292 149 20 10 318 162 642 327 72 36 144 71 160 78 54 22 149 40 205
37 99 -3 134 -18 535 -224 711 -366 958 -488 1010 -499 63 -14 103 -16 185 -6
189 22 306 127 277 248 -10 42 -45 74 -118 107 -24 11 -181 90 -349 176 -613
313 -1376 696 -1425 716 -83 33 -185 40 -266 18 -45 -12 -207 -94 -529 -267
-52 -28 -140 -74 -195 -103 -55 -29 -106 -57 -112 -62 -7 -6 -13 -7 -13 -3 0
4 -6 2 -14 -4 -16 -14 -62 -38 -286 -153 -96 -50 -179 -93 -185 -97 -39 -27
-245 -68 -260 -52 -3 3 -15 6 -26 8 -22 3 -58 21 -239 113 -58 30 -107 55
-110 55 -22 6 -455 217 -1368 666 -200 99 -366 179 -368 179 -3 0 -18 9 -32
19 -15 10 -31 19 -37 20 -5 1 -64 28 -130 60 -66 33 -154 76 -195 96 -70 34
-127 46 -176 38z"/>
<path d="M9410 5971 c-14 -4 -203 -96 -420 -203 -217 -108 -440 -217 -495
-243 -55 -26 -213 -103 -352 -171 -139 -68 -256 -124 -262 -124 -5 0 -11 -4
-13 -8 -4 -10 -189 -102 -205 -102 -6 0 -13 -4 -15 -8 -1 -5 -111 -63 -243
-129 -307 -155 -298 -150 -288 -156 22 -13 146 -79 204 -109 179 -93 251 -182
253 -313 2 -113 -48 -192 -169 -270 -75 -48 -285 -155 -306 -155 -9 0 -19 -3
-23 -7 -4 -5 -11 -8 -14 -9 -4 0 -32 -8 -63 -18 -88 -26 -98 -28 -200 -32 -79
-3 -109 1 -170 20 -74 23 -203 82 -351 162 -43 23 -85 44 -91 46 -7 2 -82 39
-167 83 -85 43 -157 79 -160 80 -3 0 -12 4 -19 9 -69 44 -509 255 -556 267
-56 15 -225 19 -265 7 -8 -3 -33 -8 -55 -13 -21 -4 -57 -16 -80 -26 -22 -10
-42 -17 -45 -16 -3 1 -30 -13 -60 -29 -189 -107 -814 -427 -826 -424 -4 1 -10
-2 -13 -7 -7 -10 -218 -114 -227 -112 -4 0 -10 -3 -13 -8 -3 -5 -46 -28 -96
-52 -49 -24 -93 -49 -97 -55 -4 -6 -8 -8 -8 -4 0 4 -118 -53 -262 -126 -578
-294 -638 -324 -638 -317 0 3 -4 1 -8 -5 -4 -6 -78 -46 -164 -89 -87 -44 -155
-82 -150 -86 4 -4 45 -26 92 -50 47 -23 127 -67 179 -97 52 -30 113 -61 135
-69 41 -14 118 -18 166 -8 25 5 171 73 180 84 3 3 43 26 90 49 47 24 103 53
125 65 22 12 42 21 45 22 14 2 386 191 388 197 2 5 7 6 12 3 4 -3 24 6 44 20
20 14 43 25 49 25 7 0 17 4 22 9 6 5 77 44 159 85 83 42 156 82 163 88 7 6 13
7 13 3 0 -4 6 -3 13 3 6 5 93 51 192 102 288 148 339 174 350 176 6 2 24 7 40
11 101 30 195 -44 195 -152 0 -52 -39 -82 -240 -184 -101 -51 -193 -99 -204
-106 -12 -7 -32 -16 -46 -20 -14 -4 -27 -10 -30 -14 -3 -3 -86 -46 -185 -96
-99 -49 -182 -93 -183 -97 -2 -5 -9 -8 -15 -8 -6 0 -56 -23 -111 -52 -56 -29
-181 -93 -279 -142 -421 -215 -527 -271 -527 -278 0 -4 9 -8 20 -8 11 0 20 -4
20 -9 0 -5 15 -15 32 -22 33 -14 150 -76 223 -119 82 -48 108 -59 161 -65 75
-10 137 8 272 77 190 98 211 108 219 109 5 1 19 9 33 18 14 9 133 70 265 136
132 66 242 122 245 125 3 3 12 6 20 8 8 2 17 8 18 13 2 5 11 9 21 9 9 0 21 4
26 9 10 8 295 155 305 157 16 2 80 39 80 46 0 4 7 8 15 8 8 0 29 8 47 18 161
91 482 244 515 247 48 3 85 -15 119 -60 49 -65 34 -143 -34 -178 -46 -23 -163
-88 -268 -148 -56 -32 -279 -148 -497 -258 -218 -110 -407 -207 -421 -216 -14
-10 -26 -13 -26 -9 0 5 -4 4 -8 -2 -4 -7 -33 -25 -65 -40 -163 -80 -413 -210
-424 -221 -7 -6 -22 -15 -33 -18 -11 -3 -20 -10 -20 -15 0 -4 21 -31 46 -60
46 -50 97 -81 214 -131 30 -13 81 -38 112 -56 31 -18 68 -33 81 -33 14 0 56
16 94 36 123 65 155 81 478 242 280 140 661 333 750 380 17 9 32 17 35 17 10
2 145 70 150 76 5 5 82 43 90 44 3 0 11 4 19 9 38 25 410 207 445 219 56 18
104 7 138 -33 59 -71 51 -153 -20 -200 -33 -22 -282 -148 -1007 -512 -132 -67
-241 -125 -243 -129 -2 -5 -9 -9 -15 -9 -7 0 -23 -6 -37 -13 -14 -8 -68 -36
-120 -64 -52 -27 -131 -69 -175 -93 -44 -23 -118 -63 -165 -88 -47 -24 -89
-48 -93 -52 -5 -4 15 -13 45 -20 57 -14 161 -59 193 -85 121 -94 236 -127 355
-101 35 8 126 46 180 74 25 14 225 115 445 225 220 111 403 205 406 210 3 5 9
8 13 7 8 -2 175 81 1289 637 389 194 714 353 722 353 7 0 15 3 17 8 2 6 313
164 328 167 3 0 21 9 40 20 19 11 37 20 40 20 3 1 39 19 80 40 41 21 77 40 80
40 14 4 46 19 50 24 9 10 156 81 167 81 6 0 13 3 15 8 2 4 46 29 98 56 52 27
118 61 145 76 28 15 86 47 130 70 72 39 93 50 166 92 13 7 26 15 29 18 4 4 38
23 111 63 144 77 207 123 264 192 33 41 63 86 68 102 15 52 16 589 1 688 -43
287 -148 493 -373 735 -197 212 -239 242 -345 246 -39 2 -82 0 -96 -5z"/>
</g>
</svg>
