<svg width="512" height="342" viewBox="0 0 512 342" fill="none" xmlns="http://www.w3.org/2000/svg">
<path d="M483.656 131.269C492.237 140.123 501.057 148.355 506.437 160.253C513.759 176.509 511.92 193.145 511.443 209.816C511.307 214.139 507.05 216.975 504.666 220.434C467.889 242.639 428.898 260.451 390.622 279.681C351.836 299.188 312.777 318.176 274.16 338.029C265.92 342.249 259.245 342.802 251.753 337.476C247.837 334.674 243.649 332.011 236.566 330.8C249.404 323.987 260.403 318.003 271.538 312.297C289.689 303.027 307.907 293.931 326.126 284.8C330.348 282.69 334.979 280.442 332.391 274.562C329.531 268.06 324.321 270.412 319.962 272.625C295.546 284.869 271.232 297.286 246.884 309.633C239.29 313.472 231.492 316.897 224.136 321.151C220.05 323.503 217.836 320.563 215.146 319.179C209.459 316.205 202.342 315.271 198.426 307.662C219.743 296.698 240.618 285.561 261.867 275.219C269.802 271.346 277.089 266.469 284.955 262.561C288.599 260.762 291.425 258.306 289.178 253.949C286.828 249.452 282.912 248.553 278.349 250.905C265.409 257.546 252.469 264.152 239.494 270.758C222.672 279.301 205.748 287.636 189.062 296.387C182.898 299.603 177.381 300.226 171.32 296.179C166.62 293.032 161.376 290.749 155.111 287.394C170.537 279.508 184.737 272.21 198.971 264.982C212.252 258.203 225.567 251.527 238.847 244.748C243.138 242.535 248.927 240.425 245.658 234.061C242.355 227.628 236.634 229.53 231.492 232.159C215.248 240.46 199.073 248.899 182.83 257.2C171.184 263.149 159.231 268.544 147.857 275.012C141.081 278.851 135.496 278.436 129.23 274.424C124.667 271.484 119.627 269.271 113.225 265.881C132.465 256.128 150.513 246.997 168.596 237.831C191.581 226.175 214.84 214.969 237.451 202.656C249.472 196.119 260.505 194.805 272.764 201.307C289.689 210.3 306.954 218.601 323.98 227.386C330.621 230.81 337.363 232.505 344.821 231.017C354.424 229.115 363.141 224.826 371.178 219.673C381.973 212.756 381.292 200.166 370.327 193.491C366.036 190.862 361.439 188.718 355.275 185.432C373.596 176.163 390.009 167.724 406.559 159.561C426.174 149.877 446.095 140.815 465.437 130.646C472.248 127.049 477.696 126.738 483.656 131.269Z" fill="#E2B542"/>
<path d="M509.201 103.982C509.031 104.397 508.826 104.812 508.588 105.227C504.127 113.182 493.639 114.496 484.717 115.845C435.714 123.143 394.85 156.831 348.538 174.712C344.792 176.165 340.876 177.513 336.858 177.375C332.26 177.202 328.004 175.092 323.883 172.983C307.095 164.474 290.307 155.966 273.485 147.457C268.275 144.829 262.86 142.131 257.037 141.854C249.954 141.543 243.28 144.898 236.946 148.149C222.167 155.758 207.353 163.367 192.574 170.977C187.603 173.536 182.461 176.13 176.944 176.407C172.483 176.614 168.09 175.3 163.833 173.847C117.998 158.006 78.36 124.146 30.5153 116.814C19.2437 115.084 5.14564 112.871 1.94464 101.768C-0.575291 93.0178 6.37155 83.7831 14.7827 80.6357C23.1938 77.4883 32.5244 78.8026 41.4123 80.1169C47.61 81.0508 53.8417 81.9846 60.0394 82.9531C62.4231 83.2989 64.8749 83.6794 67.2246 83.0568C72.1623 81.7079 74.9547 76.4853 77.1 71.7815C88.4057 47.0174 101.039 19.6938 125.728 8.83349C137.102 3.85299 149.77 3.05749 162.131 2.46951C203.948 0.532647 245.868 0.290539 287.719 0.0484313C318.673 -0.124503 350.309 -0.297437 380.344 8.34927C396.246 12.9147 404.045 19.5208 413.954 32.9059C422.774 44.8038 429.993 57.8776 435.305 71.7469C436.736 75.4823 438.302 79.5636 441.81 81.3967C443.41 82.2613 445.283 82.5034 447.088 82.6072C456.112 83.1606 465 80.6703 473.922 79.2177C482.844 77.765 492.515 77.4538 500.347 81.9846C507.736 86.2388 512.538 96.1652 509.201 103.982ZM203.642 107.856C280.091 106.368 356.643 109.066 433.092 111.798C424.579 93.5712 415.555 75.6207 406.02 57.9468C399.686 46.2219 392.637 34.1165 381.263 27.372C371.932 21.8381 360.763 20.6622 350.002 19.7629C287.583 14.5749 224.721 14.8862 162.369 20.766C143.436 22.5299 127.056 26.7495 115.444 42.7286C100.597 63.1348 89.7337 88.1411 79.3816 111.211C91.7429 113.389 104.377 112.386 116.874 111.556C145.785 109.55 174.696 108.409 203.642 107.856Z" fill="#E2B542"/>
<path d="M0 189.203C2.86047 165.442 12.5316 145.035 32.3505 130.232C35.9942 127.5 39.3655 127.707 43.2475 129.61C76.0748 145.796 108.936 161.879 141.763 177.962C148.983 181.49 156.508 184.534 163.421 188.615C170.777 192.904 177.587 191.036 184.091 187.716C204.557 177.27 224.751 166.306 245.149 155.688C251.755 152.229 258.668 152.679 265.172 155.93C293.607 170.145 321.939 184.534 350.271 198.922C353.71 200.686 358.103 202.069 357.626 207.188C357.116 212.583 352.927 214.935 348.432 216.25C341.622 218.29 334.913 218.187 328.341 214.797C308.147 204.386 287.818 194.252 267.658 183.738C259.315 179.38 251.551 179.968 243.412 184.153C197.406 207.672 151.332 231.018 105.361 254.641C99.9461 257.408 95.3489 257.581 89.9685 254.779C65.8248 242.155 41.5789 229.773 17.3331 217.426C6.06146 211.65 0.10216 202.657 0 189.203Z" fill="#E2B542"/>
<path d="M203.638 107.753C204.421 107.718 205.238 107.718 206.022 107.684C205.238 107.718 204.421 107.718 203.638 107.753Z" fill="#E2B542"/>
<path d="M145.917 108.029C146.223 107.58 146.564 107.545 146.939 107.891L146.428 108.064L145.917 108.029Z" fill="#E2B542"/>
</svg>
