<svg width="40" height="40" viewBox="0 0 40 40" fill="none" xmlns="http://www.w3.org/2000/svg">
<path d="M35.1167 28.0499L31.6667 24.5166C30.9246 23.8111 29.9885 23.3438 28.9788 23.1745C27.969 23.0052 26.9316 23.1417 26.0001 23.5666L24.5001 22.0666C26.2677 19.7048 27.0749 16.761 26.7593 13.828C26.4437 10.8949 25.0287 8.19028 22.7991 6.25857C20.5695 4.32686 17.691 3.3115 14.7428 3.41688C11.7947 3.52226 8.99598 4.74055 6.91001 6.82652C4.82405 8.91248 3.60575 11.7112 3.50037 14.6593C3.39499 17.6075 4.41036 20.486 6.34206 22.7156C8.27377 24.9452 10.9784 26.3602 13.9115 26.6758C16.8445 26.9914 19.7883 26.1842 22.1501 24.4166L23.6334 25.8999C23.1586 26.8326 22.9884 27.8908 23.1468 28.9254C23.3053 29.96 23.7845 30.9188 24.5167 31.6666L28.0501 35.1999C28.9876 36.1362 30.2584 36.6622 31.5834 36.6622C32.9084 36.6622 34.1792 36.1362 35.1167 35.1999C35.593 34.7342 35.9714 34.1781 36.2297 33.5642C36.488 32.9503 36.6211 32.291 36.6211 31.6249C36.6211 30.9588 36.488 30.2995 36.2297 29.6856C35.9714 29.0717 35.593 28.5156 35.1167 28.0499ZM20.9834 20.9832C19.8171 22.1466 18.3322 22.9381 16.7163 23.258C15.1004 23.5778 13.4259 23.4116 11.9044 22.7802C10.3829 22.1489 9.08267 21.0808 8.16792 19.7108C7.25317 18.3408 6.76496 16.7305 6.76496 15.0832C6.76496 13.436 7.25317 11.8256 8.16792 10.4557C9.08267 9.08572 10.3829 8.01761 11.9044 7.38626C13.4259 6.75491 15.1004 6.58865 16.7163 6.90849C18.3322 7.22832 19.8171 8.01991 20.9834 9.18324C21.7595 9.95733 22.3752 10.8769 22.7953 11.8893C23.2154 12.9018 23.4316 13.9871 23.4316 15.0832C23.4316 16.1794 23.2154 17.2647 22.7953 18.2771C22.3752 19.2895 21.7595 20.2091 20.9834 20.9832ZM32.7667 32.7666C32.6118 32.9228 32.4275 33.0468 32.2244 33.1314C32.0213 33.216 31.8034 33.2596 31.5834 33.2596C31.3634 33.2596 31.1455 33.216 30.9424 33.1314C30.7393 33.0468 30.555 32.9228 30.4001 32.7666L26.8667 29.2332C26.7105 29.0783 26.5865 28.894 26.5019 28.6909C26.4173 28.4878 26.3737 28.2699 26.3737 28.0499C26.3737 27.8299 26.4173 27.612 26.5019 27.4089C26.5865 27.2058 26.7105 27.0215 26.8667 26.8666C27.0217 26.7104 27.206 26.5864 27.4091 26.5018C27.6122 26.4171 27.83 26.3736 28.0501 26.3736C28.2701 26.3736 28.4879 26.4171 28.691 26.5018C28.8941 26.5864 29.0785 26.7104 29.2334 26.8666L32.7667 30.3999C32.9229 30.5548 33.0469 30.7392 33.1316 30.9423C33.2162 31.1454 33.2597 31.3632 33.2597 31.5832C33.2597 31.8033 33.2162 32.0211 33.1316 32.2242C33.0469 32.4273 32.9229 32.6116 32.7667 32.7666Z" fill="#E2B542"/>
</svg>
