<svg width="40" height="40" viewBox="0 0 40 40" fill="none" xmlns="http://www.w3.org/2000/svg">
<path d="M34.1539 12.9232H30.0461C29.6038 12.9232 29.1946 12.722 28.9251 12.3717C28.6556 12.0227 28.5643 11.5777 28.6763 11.1505C30.0212 6.03436 30.0212 5.86918 30.0212 5.61965C30.0212 3.40316 28.2119 1.6001 25.9879 1.6001C24.3692 1.6001 22.8738 2.60431 22.2821 4.0681L20.7092 7.71017C19.5923 10.2969 17.4182 12.2915 14.7463 13.1823L12.8695 13.8079C12.6051 11.719 10.8368 10.0924 8.67702 10.0924H5.84625C3.50478 10.0924 1.6001 11.9971 1.6001 14.3386V34.1539C1.6001 36.4954 3.50478 38.4001 5.84625 38.4001H8.67702C10.7333 38.4001 12.4507 36.9305 12.8391 34.9868L16.9758 37.0552C18.7353 37.935 20.7064 38.4001 22.6733 38.4001H29.9078C32.1857 38.4001 34.0489 36.5985 34.1498 34.3454L38.3574 17.5128C38.3862 17.4002 38.4001 17.2847 38.4001 17.1693C38.4001 14.8279 36.4954 12.9232 34.1539 12.9232ZM10.0924 34.1539C10.0924 34.9342 9.45803 35.5693 8.67702 35.5693H5.84625C5.06524 35.5693 4.43087 34.9342 4.43087 34.1539V14.3386C4.43087 13.5583 5.06524 12.9232 5.84625 12.9232H8.67702C9.45803 12.9232 10.0924 13.5583 10.0924 14.3386V15.7539V32.7386V34.1539ZM31.3232 34.1539C31.3232 34.9342 30.6888 35.5693 29.9078 35.5693H22.6733C21.1354 35.5693 19.6185 35.2112 18.2429 34.5234L12.9232 31.8636V16.774L15.642 15.868C19.0818 14.7217 21.87 12.1633 23.307 8.83441L24.8932 5.16007C25.07 4.72385 25.5096 4.43087 25.9879 4.43087C26.6915 4.43087 27.1407 4.98372 27.1863 5.52765C27.1292 5.79983 26.8988 6.77375 25.9892 10.2426C25.6935 11.3699 25.7725 12.6047 26.3566 13.6133C27.1379 14.9629 28.5257 15.7539 30.0461 15.7539H34.1539C34.8851 15.7539 35.4892 16.3116 35.5624 17.0243L35.1723 18.5847H29.2001C28.8093 18.5847 28.4924 18.9016 28.4924 19.2924V20.7078C28.4924 21.0986 28.8093 21.4155 29.2001 21.4155H34.4646L33.7569 24.2463H29.2001C28.8093 24.2463 28.4924 24.5632 28.4924 24.9539V26.3693C28.4924 26.7601 28.8093 27.077 29.2001 27.077H33.0492L32.3417 29.9078H29.2001C28.8093 29.9078 28.4924 30.2247 28.4924 30.6155V32.0309C28.4924 32.4217 28.8093 32.7386 29.2001 32.7386H31.634L31.3661 33.8104C31.337 33.9231 31.3232 34.0386 31.3232 34.1539Z" fill="#E2B542"/>
</svg>
