<svg width="40" height="40" viewBox="0 0 40 40" fill="none" xmlns="http://www.w3.org/2000/svg">
<path d="M34.5334 20.6217C34.1651 20.6217 33.8118 20.4754 33.5514 20.2149C33.291 19.9545 33.1446 19.6012 33.1446 19.2329V15.2333C33.1968 14.4463 32.9369 13.6704 32.4212 13.0736C31.9055 12.4768 31.1755 12.1072 30.3893 12.0446H6.35801C5.98968 12.0446 5.63645 11.8983 5.376 11.6379C5.11555 11.3774 4.96924 11.0242 4.96924 10.6559C4.96924 10.2875 5.11555 9.9343 5.376 9.67385C5.63645 9.41341 5.98968 9.26709 6.35801 9.26709H30.3893C31.915 9.32213 33.3565 9.97994 34.3979 11.0963C35.4392 12.2126 35.9954 13.6964 35.9444 15.2221V19.2218C35.9459 19.407 35.9104 19.5906 35.8398 19.7619C35.7693 19.9331 35.6653 20.0885 35.5338 20.219C35.4023 20.3494 35.2461 20.4522 35.0743 20.5214C34.9025 20.5906 34.7186 20.6247 34.5334 20.6217Z" fill="#E2B542"/>
<path d="M30.3894 38.3537H6.35811C4.83246 38.2987 3.3909 37.6408 2.34955 36.5245C1.30819 35.4082 0.752028 33.9244 0.803026 32.3986V7.33408C0.803026 6.96576 0.949343 6.61252 1.20979 6.35207C1.47023 6.09163 1.82347 5.94531 2.1918 5.94531C2.56012 5.94531 2.91336 6.09163 3.17381 6.35207C3.43425 6.61252 3.58057 6.96576 3.58057 7.33408V32.3986C3.52853 33.1845 3.78877 33.9591 4.30472 34.5541C4.82066 35.1491 5.55061 35.5164 6.33589 35.5761H30.3894C31.1747 35.5164 31.9046 35.1491 32.4206 34.5541C32.9365 33.9591 33.1968 33.1845 33.1447 32.3986V29.5767C33.1447 29.2083 33.2911 28.8551 33.5515 28.5946C33.8119 28.3342 34.1652 28.1879 34.5335 28.1879C34.9018 28.1879 35.2551 28.3342 35.5155 28.5946C35.776 28.8551 35.9223 29.2083 35.9223 29.5767V32.3986C35.9734 33.9207 35.4203 35.4012 34.3836 36.5169C33.347 37.6326 31.9111 38.2929 30.3894 38.3537Z" fill="#E2B542"/>
<path d="M29.8227 12.0447C29.4582 12.0448 29.1083 11.9015 28.8485 11.6458C28.5887 11.3902 28.4398 11.0426 28.434 10.6782V7.60064C28.4079 6.94147 28.1224 6.31931 27.6395 5.86978C27.1567 5.42026 26.5158 5.17981 25.8564 5.20085H5.8581C5.29116 5.1798 4.73898 5.38429 4.32251 5.76953C3.90603 6.15478 3.65919 6.68937 3.63607 7.25623C3.65919 7.82309 3.90603 8.35768 4.32251 8.74293C4.73898 9.12817 5.29116 9.33266 5.8581 9.31161H18.0793C18.4476 9.31161 18.8009 9.45793 19.0613 9.71837C19.3217 9.97882 19.4681 10.3321 19.4681 10.7004C19.4681 11.0687 19.3217 11.4219 19.0613 11.6824C18.8009 11.9428 18.4476 12.0892 18.0793 12.0892H5.82477C5.17749 12.0994 4.53454 11.9819 3.93273 11.7434C3.33093 11.5048 2.78211 11.1498 2.31769 10.6988C1.85328 10.2478 1.48239 9.70965 1.22629 9.1151C0.970181 8.52055 0.833881 7.88132 0.825195 7.23401C0.848572 5.93055 1.38813 4.68962 2.32545 3.78354C3.26277 2.87747 4.52127 2.38027 5.82477 2.40108H25.8231C26.5189 2.38636 27.2108 2.50941 27.8588 2.76317C28.5069 3.01692 29.0984 3.39636 29.5992 3.87963C30.1001 4.36291 30.5004 4.94048 30.7771 5.57909C31.0538 6.2177 31.2014 6.90474 31.2115 7.60064V10.6782C31.2057 11.0426 31.0568 11.3902 30.797 11.6458C30.5372 11.9015 30.1873 12.0448 29.8227 12.0447ZM35.4334 30.932H27.734C26.2301 30.9618 24.7759 30.3935 23.6906 29.352C22.6053 28.3104 21.9777 26.8808 21.9456 25.3769V23.366C21.9777 21.8621 22.6053 20.4325 23.6906 19.3909C24.7759 18.3494 26.2301 17.7811 27.734 17.8109H35.5112C35.997 17.8124 36.4778 17.9095 36.9261 18.0968C37.3744 18.284 37.7815 18.5578 38.124 18.9024C38.4665 19.2469 38.7378 19.6556 38.9224 20.105C39.1069 20.5545 39.2012 21.0358 39.1997 21.5217V27.2879C39.1822 28.2701 38.7759 29.2054 38.0698 29.8885C37.3638 30.5716 36.4157 30.9469 35.4334 30.932ZM27.734 20.5995C26.9685 20.5694 26.2222 20.8434 25.658 21.3618C25.0939 21.8801 24.7578 22.6007 24.7232 23.366V25.4325C24.7578 26.1978 25.0939 26.9183 25.658 27.4367C26.2222 27.955 26.9685 28.229 27.734 28.1989H35.4334C35.676 28.1989 35.9089 28.1033 36.0815 27.9328C36.2542 27.7622 36.3526 27.5305 36.3555 27.2879V21.5217C36.3489 21.2999 36.2574 21.0892 36.1 20.9329C36.0167 20.8458 35.9167 20.7763 35.806 20.7286C35.6953 20.6809 35.5761 20.6559 35.4556 20.6551L27.734 20.5995Z" fill="#E2B542"/>
<path d="M28.5006 25.788C29.2676 25.788 29.8894 25.1663 29.8894 24.3993C29.8894 23.6323 29.2676 23.0105 28.5006 23.0105C27.7336 23.0105 27.1118 23.6323 27.1118 24.3993C27.1118 25.1663 27.7336 25.788 28.5006 25.788Z" fill="#E2B542"/>
</svg>
