<svg width="226" height="42" viewBox="0 0 226 42" fill="none" xmlns="http://www.w3.org/2000/svg">
<path d="M88.32 9.96C88.32 11.8133 87.6867 13.2733 86.42 14.34C85.1667 15.3933 83.36 15.98 81 16.1V17.62H78.02V16.08C75.6467 15.9467 73.8267 15.3533 72.56 14.3C71.3067 13.2333 70.68 11.7867 70.68 9.96C70.68 8.12 71.3067 6.68 72.56 5.64C73.8267 4.58667 75.6467 3.98667 78.02 3.84V2.4H81V3.82C83.36 3.95333 85.1667 4.55333 86.42 5.62C87.6867 6.68667 88.32 8.13333 88.32 9.96ZM81 13.56C82.4133 13.4267 83.4667 13.0667 84.16 12.48C84.8533 11.88 85.2 11.0333 85.2 9.94C85.2 7.80667 83.8 6.62 81 6.38V13.56ZM73.82 9.96C73.82 12.0667 75.22 13.2667 78.02 13.56V6.38C76.5933 6.51333 75.5333 6.87333 74.84 7.46C74.16 8.03333 73.82 8.86667 73.82 9.96ZM100.964 11.66C100.964 11.7 100.944 11.98 100.904 12.5H92.7639C92.9106 13.1667 93.2572 13.6933 93.8039 14.08C94.3506 14.4667 95.0306 14.66 95.8439 14.66C96.4039 14.66 96.8972 14.58 97.3239 14.42C97.7639 14.2467 98.1706 13.98 98.5439 13.62L100.204 15.42C99.1906 16.58 97.7106 17.16 95.7639 17.16C94.5506 17.16 93.4772 16.9267 92.5439 16.46C91.6106 15.98 90.8906 15.32 90.3839 14.48C89.8772 13.64 89.6239 12.6867 89.6239 11.62C89.6239 10.5667 89.8706 9.62 90.3639 8.78C90.8706 7.92667 91.5572 7.26667 92.4239 6.8C93.3039 6.32 94.2839 6.08 95.3639 6.08C96.4172 6.08 97.3706 6.30667 98.2239 6.76C99.0772 7.21333 99.7439 7.86667 100.224 8.72C100.717 9.56 100.964 10.54 100.964 11.66ZM95.3839 8.44C94.6772 8.44 94.0839 8.64 93.6039 9.04C93.1239 9.44 92.8306 9.98667 92.7239 10.68H98.0239C97.9172 10 97.6239 9.46 97.1439 9.06C96.6639 8.64667 96.0772 8.44 95.3839 8.44ZM115.318 14.44V19.32H112.418V17H104.858V19.32H101.958V14.44H102.398C103.064 14.4267 103.524 14.0333 103.778 13.26C104.031 12.4867 104.191 11.3867 104.258 9.96L104.398 6.24H113.778V14.44H115.318ZM107.078 10.18C107.038 11.2733 106.951 12.1667 106.818 12.86C106.698 13.5533 106.464 14.08 106.118 14.44H110.658V8.8H107.138L107.078 10.18ZM127.741 11.66C127.741 11.7 127.721 11.98 127.681 12.5H119.541C119.688 13.1667 120.035 13.6933 120.581 14.08C121.128 14.4667 121.808 14.66 122.621 14.66C123.181 14.66 123.675 14.58 124.101 14.42C124.541 14.2467 124.948 13.98 125.321 13.62L126.981 15.42C125.968 16.58 124.488 17.16 122.541 17.16C121.328 17.16 120.255 16.9267 119.321 16.46C118.388 15.98 117.668 15.32 117.161 14.48C116.655 13.64 116.401 12.6867 116.401 11.62C116.401 10.5667 116.648 9.62 117.141 8.78C117.648 7.92667 118.335 7.26667 119.201 6.8C120.081 6.32 121.061 6.08 122.141 6.08C123.195 6.08 124.148 6.30667 125.001 6.76C125.855 7.21333 126.521 7.86667 127.001 8.72C127.495 9.56 127.741 10.54 127.741 11.66ZM122.161 8.44C121.455 8.44 120.861 8.64 120.381 9.04C119.901 9.44 119.608 9.98667 119.501 10.68H124.801C124.695 10 124.401 9.46 123.921 9.06C123.441 8.64667 122.855 8.44 122.161 8.44ZM136.473 6.08C137.473 6.08 138.379 6.31333 139.193 6.78C140.019 7.23333 140.666 7.88 141.133 8.72C141.599 9.54667 141.833 10.5133 141.833 11.62C141.833 12.7267 141.599 13.7 141.133 14.54C140.666 15.3667 140.019 16.0133 139.193 16.48C138.379 16.9333 137.473 17.16 136.473 17.16C135.099 17.16 134.019 16.7267 133.233 15.86V20.88H130.113V6.24H133.093V7.48C133.866 6.54667 134.993 6.08 136.473 6.08ZM135.933 14.6C136.733 14.6 137.386 14.3333 137.893 13.8C138.413 13.2533 138.673 12.5267 138.673 11.62C138.673 10.7133 138.413 9.99333 137.893 9.46C137.386 8.91333 136.733 8.64 135.933 8.64C135.133 8.64 134.473 8.91333 133.953 9.46C133.446 9.99333 133.193 10.7133 133.193 11.62C133.193 12.5267 133.446 13.2533 133.953 13.8C134.473 14.3333 135.133 14.6 135.933 14.6ZM148.024 6.08C149.69 6.08 150.97 6.48 151.864 7.28C152.757 8.06667 153.204 9.26 153.204 10.86V17H150.284V15.66C149.697 16.66 148.604 17.16 147.004 17.16C146.177 17.16 145.457 17.02 144.844 16.74C144.244 16.46 143.784 16.0733 143.464 15.58C143.144 15.0867 142.984 14.5267 142.984 13.9C142.984 12.9 143.357 12.1133 144.104 11.54C144.864 10.9667 146.03 10.68 147.604 10.68H150.084C150.084 10 149.877 9.48 149.464 9.12C149.05 8.74667 148.43 8.56 147.604 8.56C147.03 8.56 146.464 8.65333 145.904 8.84C145.357 9.01333 144.89 9.25333 144.504 9.56L143.384 7.38C143.97 6.96667 144.67 6.64667 145.484 6.42C146.31 6.19333 147.157 6.08 148.024 6.08ZM147.784 15.06C148.317 15.06 148.79 14.94 149.204 14.7C149.617 14.4467 149.91 14.08 150.084 13.6V12.5H147.944C146.664 12.5 146.024 12.92 146.024 13.76C146.024 14.16 146.177 14.48 146.484 14.72C146.804 14.9467 147.237 15.06 147.784 15.06ZM166.234 6.24V17H163.114V8.8H159.714L159.614 10.7C159.561 12.1133 159.427 13.2867 159.214 14.22C159.001 15.1533 158.654 15.8867 158.174 16.42C157.694 16.9533 157.027 17.22 156.174 17.22C155.721 17.22 155.181 17.14 154.554 16.98L154.714 14.42C154.927 14.4467 155.081 14.46 155.174 14.46C155.641 14.46 155.987 14.2933 156.214 13.96C156.454 13.6133 156.614 13.18 156.694 12.66C156.774 12.1267 156.834 11.4267 156.874 10.56L157.034 6.24H166.234ZM175.054 9.68C176.454 9.69333 177.528 10.0133 178.274 10.64C179.021 11.2533 179.394 12.1267 179.394 13.26C179.394 14.4467 178.974 15.3733 178.134 16.04C177.308 16.6933 176.141 17.02 174.634 17.02L169.234 17V6.24H172.334V9.68H175.054ZM174.354 14.8C174.954 14.8133 175.414 14.6867 175.734 14.42C176.054 14.1533 176.214 13.7533 176.214 13.22C176.214 12.7 176.054 12.32 175.734 12.08C175.428 11.84 174.968 11.7133 174.354 11.7L172.334 11.68V14.8H174.354ZM181.344 6.24H184.444V10.44H189.124V6.24H192.244V17H189.124V12.98H184.444V17H181.344V6.24ZM200.89 9.68C202.29 9.69333 203.35 10.0067 204.07 10.62C204.79 11.2333 205.15 12.1133 205.15 13.26C205.15 14.46 204.744 15.3867 203.93 16.04C203.117 16.6933 201.964 17.02 200.47 17.02L195.23 17V6.24H198.33V9.68H200.89ZM206.31 6.24H209.41V17H206.31V6.24ZM200.19 14.8C200.79 14.8133 201.25 14.6867 201.57 14.42C201.89 14.1533 202.05 13.7533 202.05 13.22C202.05 12.7 201.89 12.32 201.57 12.08C201.264 11.84 200.804 11.7133 200.19 11.7L198.33 11.68V14.8H200.19ZM212.418 6.24H215.518V12.64L220.758 6.24H223.618V17H220.518V10.6L215.298 17H212.418V6.24ZM217.818 5.08C215.471 5.08 214.291 4.04667 214.278 1.98H216.318C216.331 2.44667 216.458 2.81333 216.698 3.08C216.951 3.33333 217.318 3.46 217.798 3.46C218.278 3.46 218.645 3.33333 218.898 3.08C219.165 2.81333 219.298 2.44667 219.298 1.98H221.378C221.365 4.04667 220.178 5.08 217.818 5.08Z" fill="#252525"/>
<path d="M81.22 34H74.72L73.48 37H70.16L76.4 23H79.6L85.86 37H82.46L81.22 34ZM80.2 31.54L77.98 26.18L75.76 31.54H80.2ZM95.6966 31.38C96.9632 31.8067 97.5966 32.66 97.5966 33.94C97.5966 34.9133 97.2299 35.6667 96.4966 36.2C95.7632 36.7333 94.6699 37 93.2166 37H87.4766V26.24H92.9766C94.3232 26.24 95.3766 26.4867 96.1366 26.98C96.8966 27.46 97.2766 28.14 97.2766 29.02C97.2766 29.5533 97.1366 30.0267 96.8566 30.44C96.5899 30.84 96.2032 31.1533 95.6966 31.38ZM90.3366 30.66H92.6966C93.7899 30.66 94.3366 30.2733 94.3366 29.5C94.3366 28.74 93.7899 28.36 92.6966 28.36H90.3366V30.66ZM92.9566 34.88C94.1032 34.88 94.6766 34.4867 94.6766 33.7C94.6766 33.2867 94.5432 32.9867 94.2766 32.8C94.0099 32.6 93.5899 32.5 93.0166 32.5H90.3366V34.88H92.9566ZM108.958 28.8H105.318V37H102.218V28.8H98.578V26.24H108.958V28.8ZM115.212 37.16C114.079 37.16 113.059 36.9267 112.152 36.46C111.259 35.98 110.559 35.32 110.052 34.48C109.545 33.64 109.292 32.6867 109.292 31.62C109.292 30.5533 109.545 29.6 110.052 28.76C110.559 27.92 111.259 27.2667 112.152 26.8C113.059 26.32 114.079 26.08 115.212 26.08C116.345 26.08 117.359 26.32 118.252 26.8C119.145 27.2667 119.845 27.92 120.352 28.76C120.859 29.6 121.112 30.5533 121.112 31.62C121.112 32.6867 120.859 33.64 120.352 34.48C119.845 35.32 119.145 35.98 118.252 36.46C117.359 36.9267 116.345 37.16 115.212 37.16ZM115.212 34.6C116.012 34.6 116.665 34.3333 117.172 33.8C117.692 33.2533 117.952 32.5267 117.952 31.62C117.952 30.7133 117.692 29.9933 117.172 29.46C116.665 28.9133 116.012 28.64 115.212 28.64C114.412 28.64 113.752 28.9133 113.232 29.46C112.712 29.9933 112.452 30.7133 112.452 31.62C112.452 32.5267 112.712 33.2533 113.232 33.8C113.752 34.3333 114.412 34.6 115.212 34.6ZM131.478 31.38C132.744 31.8067 133.378 32.66 133.378 33.94C133.378 34.9133 133.011 35.6667 132.278 36.2C131.544 36.7333 130.451 37 128.998 37H123.258V26.24H128.758C130.104 26.24 131.158 26.4867 131.918 26.98C132.678 27.46 133.058 28.14 133.058 29.02C133.058 29.5533 132.918 30.0267 132.638 30.44C132.371 30.84 131.984 31.1533 131.478 31.38ZM126.118 30.66H128.478C129.571 30.66 130.118 30.2733 130.118 29.5C130.118 28.74 129.571 28.36 128.478 28.36H126.118V30.66ZM128.738 34.88C129.884 34.88 130.458 34.4867 130.458 33.7C130.458 33.2867 130.324 32.9867 130.058 32.8C129.791 32.6 129.371 32.5 128.798 32.5H126.118V34.88H128.738ZM141.359 29.68C142.759 29.6933 143.819 30.0067 144.539 30.62C145.259 31.2333 145.619 32.1133 145.619 33.26C145.619 34.46 145.213 35.3867 144.399 36.04C143.586 36.6933 142.433 37.02 140.939 37.02L135.699 37V26.24H138.799V29.68H141.359ZM146.779 26.24H149.879V37H146.779V26.24ZM140.659 34.8C141.259 34.8133 141.719 34.6867 142.039 34.42C142.359 34.1533 142.519 33.7533 142.519 33.22C142.519 32.7 142.359 32.32 142.039 32.08C141.733 31.84 141.273 31.7133 140.659 31.7L138.799 31.68V34.8H140.659ZM157.627 32.92H156.007V37H152.887V26.24H156.007V30.42H157.687L160.607 26.24H163.927L160.167 31.4L164.187 37H160.507L157.627 32.92ZM175.893 26.24L171.033 37.66C170.54 38.9 169.927 39.7733 169.193 40.28C168.473 40.7867 167.6 41.04 166.573 41.04C166.013 41.04 165.46 40.9533 164.913 40.78C164.367 40.6067 163.92 40.3667 163.573 40.06L164.713 37.84C164.953 38.0533 165.227 38.22 165.533 38.34C165.853 38.46 166.167 38.52 166.473 38.52C166.9 38.52 167.247 38.4133 167.513 38.2C167.78 38 168.02 37.66 168.233 37.18L168.273 37.08L163.613 26.24H166.833L169.853 33.54L172.893 26.24H175.893ZM188.098 26.24V37H184.978V28.8H180.498V37H177.398V26.24H188.098Z" fill="#252525"/>
<path d="M56.6783 15.3833C57.6839 16.4209 58.7175 17.3855 59.348 18.7798C60.206 20.6848 59.9905 22.6344 59.9346 24.588C59.9187 25.0946 59.4198 25.427 59.1405 25.8323C54.8307 28.4344 50.2614 30.5218 45.776 32.7753C41.2307 35.0613 36.6535 37.2864 32.1281 39.6129C31.1624 40.1074 30.3802 40.1723 29.5023 39.5481C29.0434 39.2198 28.5526 38.9077 27.7225 38.7658C29.227 37.9674 30.5159 37.2662 31.8209 36.5974C33.9478 35.5112 36.0828 34.4452 38.2178 33.3752C38.7126 33.1279 39.2553 32.8645 38.9521 32.1754C38.6168 31.4134 38.0063 31.6891 37.4955 31.9485C34.6342 33.3833 31.7849 34.8384 28.9317 36.2853C28.0418 36.7352 27.1279 37.1365 26.2659 37.635C25.7871 37.9106 25.5277 37.5661 25.2124 37.404C24.546 37.0554 23.712 36.946 23.253 36.0543C25.7512 34.7694 28.1974 33.4643 30.6875 32.2524C31.6173 31.7985 32.4713 31.227 33.3931 30.769C33.8201 30.5582 34.1514 30.2705 33.888 29.7598C33.6126 29.2329 33.1537 29.1275 32.619 29.4031C31.1025 30.1813 29.5861 30.9554 28.0657 31.7296C26.0943 32.7307 24.111 33.7075 22.1556 34.733C21.4333 35.1099 20.7868 35.1829 20.0765 34.7086C19.5258 34.3398 18.9113 34.0723 18.177 33.6792C19.9847 32.755 21.6488 31.8998 23.3169 31.0527C24.8732 30.2583 26.4335 29.476 27.9899 28.6816C28.4927 28.4222 29.1711 28.175 28.788 27.4292C28.4009 26.6753 27.7305 26.8983 27.1279 27.2063C25.2244 28.179 23.3289 29.168 21.4253 30.1408C20.0606 30.8379 18.6599 31.4702 17.327 32.2281C16.5329 32.678 15.8784 32.6294 15.1441 32.1592C14.6094 31.8147 14.0188 31.5553 13.2686 31.1581C15.5232 30.0151 17.6383 28.9451 19.7573 27.871C22.4509 26.5051 25.1765 25.1919 27.8263 23.749C29.2349 22.9829 30.5279 22.8289 31.9645 23.5909C33.9478 24.6447 35.9711 25.6175 37.9664 26.647C38.7445 27.0482 39.5347 27.2468 40.4086 27.0725C41.534 26.8496 42.5556 26.347 43.4974 25.7431C44.7624 24.9325 44.6826 23.4571 43.3976 22.6749C42.8948 22.3668 42.356 22.1156 41.6337 21.7305C43.7807 20.6443 45.7042 19.6553 47.6436 18.6988C49.9422 17.5639 52.2767 16.502 54.5433 15.3103C55.3414 14.8888 55.9799 14.8523 56.6783 15.3833Z" fill="#E2B542"/>
<path d="M59.6716 12.1854C59.6517 12.234 59.6277 12.2826 59.5998 12.3313C59.077 13.2635 57.8479 13.4175 56.8024 13.5756C51.0599 14.4308 46.2712 18.3785 40.844 20.474C40.405 20.6442 39.9461 20.8023 39.4752 20.7861C38.9365 20.7658 38.4376 20.5186 37.9548 20.2714C35.9874 19.2743 34.02 18.2772 32.0487 17.2801C31.4381 16.9721 30.8036 16.656 30.1212 16.6235C29.2912 16.5871 28.509 16.9802 27.7668 17.3612C26.0348 18.2529 24.2989 19.1446 22.567 20.0363C21.9844 20.3362 21.3818 20.6402 20.7353 20.6726C20.2126 20.6969 19.6978 20.5429 19.1989 20.3727C13.8276 18.5163 9.18254 14.5483 3.57575 13.6891C2.25486 13.4864 0.602753 13.227 0.227636 11.926C-0.0676682 10.9005 0.746413 9.81832 1.73209 9.44948C2.71777 9.08065 3.81119 9.23467 4.85274 9.38869C5.57903 9.49812 6.30931 9.60756 7.0356 9.72104C7.31494 9.76158 7.60226 9.80616 7.87762 9.7332C8.45625 9.57513 8.78348 8.96311 9.03489 8.41188C10.3598 5.50984 11.8403 2.30786 14.7335 1.03517C16.0663 0.451522 17.5508 0.358298 18.9994 0.289395C23.8999 0.0624194 28.8123 0.0340475 33.7168 0.00567553C37.3442 -0.0145902 41.0515 -0.0348558 44.5712 0.978428C46.4348 1.51344 47.3486 2.28759 48.5099 3.85616C49.5435 5.25043 50.3895 6.78252 51.012 8.40783C51.1796 8.84557 51.3632 9.32384 51.7742 9.53865C51.9618 9.63998 52.1813 9.66835 52.3928 9.68051C53.4503 9.74536 54.4918 9.45354 55.5373 9.28331C56.5829 9.11308 57.7162 9.0766 58.6341 9.60756C59.5 10.1061 60.0627 11.2693 59.6716 12.1854ZM23.864 12.6393C32.8229 12.465 41.7937 12.7812 50.7526 13.1014C49.755 10.9654 48.6975 8.86178 47.5801 6.79063C46.8378 5.41661 46.0118 3.99802 44.6789 3.20765C43.5855 2.55915 42.2766 2.42134 41.0156 2.31596C33.7008 1.70799 26.3341 1.74447 19.0274 2.43351C16.8086 2.64022 14.8891 3.1347 13.5283 5.00725C11.7884 7.3986 10.5154 10.329 9.30226 13.0325C10.7508 13.2878 12.2314 13.1703 13.6959 13.073C17.0839 12.8379 20.4719 12.7042 23.864 12.6393Z" fill="#E2B542"/>
<path d="M0 22.1724C0.33521 19.3879 1.46854 16.9965 3.79107 15.2618C4.21806 14.9416 4.61313 14.9659 5.06806 15.1888C8.915 17.0857 12.7659 18.9704 16.6129 20.8551C17.4589 21.2685 18.3408 21.6252 19.1509 22.1035C20.0129 22.6061 20.811 22.3872 21.5732 21.9981C23.9715 20.7741 26.338 19.4892 28.7283 18.2449C29.5025 17.8396 30.3126 17.8923 31.0748 18.2733C34.407 19.9391 37.7271 21.6252 41.0473 23.3113C41.4504 23.518 41.9651 23.6802 41.9093 24.28C41.8494 24.9123 41.3586 25.1879 40.8318 25.3419C40.0337 25.5811 39.2475 25.5689 38.4774 25.1717C36.1109 23.9517 33.7285 22.7642 31.3661 21.532C30.3884 21.0213 29.4786 21.0902 28.5248 21.5806C23.1335 24.3368 17.7342 27.0726 12.3469 29.8409C11.7124 30.1652 11.1737 30.1854 10.5432 29.8571C7.71383 28.3778 4.87252 26.9267 2.03122 25.4798C0.710327 24.8029 0.0119718 23.7491 0 22.1724Z" fill="#E2B542"/>
<path d="M23.8638 12.6272C23.9556 12.6232 24.0513 12.6232 24.1431 12.6191C24.0513 12.6232 23.9556 12.6232 23.8638 12.6272Z" fill="#E2B542"/>
<path d="M17.0996 12.6597C17.1355 12.607 17.1754 12.6029 17.2193 12.6435L17.1595 12.6637L17.0996 12.6597Z" fill="#E2B542"/>
</svg>
