<svg width="45" height="45" viewBox="0 0 45 45" fill="none" xmlns="http://www.w3.org/2000/svg">
<g clip-path="url(#clip0_35_258)">
<path d="M43.125 15H32.8125V16.875H43.125V15Z" fill="#E2B542"/>
<path d="M25.3126 16.875H14.0626C13.8095 16.875 13.5751 16.7719 13.397 16.6031L4.02197 7.22812L5.34385 5.90625L14.447 15H25.3126V16.875Z" fill="#E2B542"/>
<path d="M41.25 18.75H30.9375V20.625H41.25V18.75Z" fill="#E2B542"/>
<path d="M23.4376 20.625H12.1876C11.9345 20.625 11.7001 20.5219 11.522 20.3531L2.14697 10.9781L3.46885 9.65625L12.572 18.75H23.4376V20.625Z" fill="#E2B542"/>
<path d="M39.3751 24.375H10.3126C10.0595 24.375 9.8251 24.2719 9.64697 24.1031L0.271973 14.7281L1.59385 13.4062L10.697 22.5H39.3751V24.375ZM44.0626 13.125H15.9376C15.6845 13.125 15.4501 13.0219 15.272 12.8531L5.89697 3.47813C5.63447 3.20625 5.5501 2.80312 5.7001 2.45625C5.84072 2.1 6.1876 1.875 6.5626 1.875H34.6876C34.9407 1.875 35.1751 1.97812 35.3532 2.14687L44.7282 11.5219C45.0001 11.7937 45.0751 12.1969 44.9345 12.5437C44.7845 12.9 44.4376 13.125 44.0626 13.125ZM16.322 11.25H41.7938L34.2938 3.75H8.82197L16.322 11.25Z" fill="#E2B542"/>
<path d="M33.7499 13.125H26.2499C25.9968 13.125 25.7624 13.0219 25.5843 12.8531L16.2093 3.47813C15.9374 3.20625 15.8624 2.80312 16.003 2.45625C16.153 2.1 16.4999 1.875 16.8749 1.875H24.3749C24.628 1.875 24.8624 1.97812 25.0405 2.14687L34.4155 11.5219C34.6874 11.7937 34.7624 12.1969 34.6218 12.5437C34.4718 12.9 34.1249 13.125 33.7499 13.125ZM26.6343 11.25H31.4812L23.9812 3.75H19.1343L26.6343 11.25Z" fill="#E2B542"/>
<path d="M30 24.375H22.5C22.2 24.375 21.9188 24.2344 21.7406 23.9812C21.5625 23.7375 21.5156 23.4188 21.6094 23.1375L25.3594 11.8875C25.4906 11.5125 25.8469 11.25 26.25 11.25H33.75C34.05 11.25 34.3313 11.3906 34.5094 11.6344C34.6875 11.8781 34.7344 12.1969 34.6406 12.4781L30.8906 23.7281C30.7594 24.1125 30.4031 24.375 30 24.375ZM23.8031 22.5H29.325L32.4469 13.125H26.925L23.8031 22.5ZM8.4375 40.3125H0.9375C0.421875 40.3125 0 39.8906 0 39.375V26.25C0 25.7344 0.421875 25.3125 0.9375 25.3125H8.4375C8.95312 25.3125 9.375 25.7344 9.375 26.25V39.375C9.375 39.8906 8.95312 40.3125 8.4375 40.3125ZM1.875 38.4375H7.5V27.1875H1.875V38.4375Z" fill="#E2B542"/>
<path d="M25.3127 43.125C25.2471 43.125 25.1721 43.1156 25.1064 43.1063L8.23145 39.3563L8.63457 37.5281L25.1814 41.2031L43.1252 32.2313V29.3625L31.1908 32.775L30.6752 30.975L43.8002 27.225C44.0815 27.15 44.3908 27.2063 44.6252 27.375C44.8596 27.5531 45.0002 27.8344 45.0002 28.125V32.8125C45.0002 33.1688 44.8033 33.4875 44.4846 33.6469L25.7346 43.0219C25.6033 43.0875 25.4533 43.125 25.3127 43.125Z" fill="#E2B542"/>
<path d="M22.5 36.5625C22.4156 36.5625 22.3312 36.5531 22.2469 36.525L15.6844 34.65L16.2 32.85L22.5375 34.6594L30 33V30.9375H23.4375C23.2875 30.9375 23.1469 30.9 23.0156 30.8344L17.5875 28.125H8.4375V26.25H17.8125C17.9625 26.25 18.1031 26.2875 18.2344 26.3531L23.6625 29.0625H30.9375C31.4531 29.0625 31.875 29.4844 31.875 30V33.75C31.875 34.1906 31.5656 34.5656 31.1438 34.6687L22.7062 36.5437C22.6406 36.5531 22.5656 36.5625 22.5 36.5625Z" fill="#E2B542"/>
<path d="M5.625 34.6875H3.75V36.5625H5.625V34.6875Z" fill="#E2B542"/>
</g>
<defs>
<clipPath id="clip0_35_258">
<rect width="45" height="45" fill="white"/>
</clipPath>
</defs>
</svg>
