<svg width="45" height="45" viewBox="0 0 45 45" fill="none" xmlns="http://www.w3.org/2000/svg">
<path d="M7.47162 42.8774H32.5188C32.744 42.8774 32.9599 42.7879 33.1192 42.6287C33.2784 42.4695 33.3678 42.2535 33.3678 42.0283V37.0189H37.5282C37.7534 37.0189 37.9694 36.9294 38.1286 36.7702C38.2878 36.611 38.3773 36.395 38.3773 36.1698V8.94057C38.3777 8.81373 38.3497 8.6884 38.2954 8.5738C38.241 8.45919 38.1616 8.35822 38.0631 8.27831L30.6933 2.33491L30.566 2.24152L30.4641 2.18208C30.3662 2.14531 30.2629 2.12522 30.1584 2.12265H12.481C12.2559 2.12265 12.0399 2.2121 11.8807 2.37133C11.7214 2.53056 11.632 2.74652 11.632 2.97171V7.98114H7.47162C7.24643 7.98114 7.03047 8.07059 6.87124 8.22982C6.71201 8.38905 6.62256 8.60501 6.62256 8.8302V42.0283C6.62256 42.2535 6.71201 42.4695 6.87124 42.6287C7.03047 42.7879 7.24643 42.8774 7.47162 42.8774ZM25.998 10.6132L30.6254 14.3576H25.998V10.6132ZM31.0075 4.75473L35.2528 8.15095H31.0075V4.75473ZM13.3301 3.82076H29.3094V9.03397C29.3094 9.25915 29.3988 9.47512 29.558 9.63434C29.7173 9.79357 29.9332 9.88303 30.1584 9.88303H36.6792V35.3547H33.3678V14.7991C33.3683 14.6722 33.3403 14.5469 33.2859 14.4323C33.2316 14.3177 33.1522 14.2167 33.0537 14.1368L25.6839 8.1934C25.6462 8.1627 25.603 8.13963 25.5565 8.12548L25.4716 8.04057C25.3708 8.00379 25.2647 7.98371 25.1575 7.98114H13.3301V3.82076ZM8.32067 9.67925H24.2999V15.2066C24.2999 15.4318 24.3894 15.6478 24.5486 15.807C24.7078 15.9662 24.9238 16.0557 25.149 16.0557H31.6697V41.1793H8.32067V9.67925Z" fill="#E2B542"/>
<path d="M27.5092 18.8745H12.4809C12.2557 18.8745 12.0397 18.964 11.8805 19.1232C11.7213 19.2824 11.6318 19.4984 11.6318 19.7236C11.6318 19.9488 11.7213 20.1647 11.8805 20.3239C12.0397 20.4832 12.2557 20.5726 12.4809 20.5726H27.5092C27.7344 20.5726 27.9503 20.4832 28.1096 20.3239C28.2688 20.1647 28.3583 19.9488 28.3583 19.7236C28.3583 19.4984 28.2688 19.2824 28.1096 19.1232C27.9503 18.964 27.7344 18.8745 27.5092 18.8745ZM27.5092 22.9839H12.4809C12.2557 22.9839 12.0397 23.0734 11.8805 23.2326C11.7213 23.3919 11.6318 23.6078 11.6318 23.833C11.6318 24.0582 11.7213 24.2741 11.8805 24.4334C12.0397 24.5926 12.2557 24.6821 12.4809 24.6821H27.5092C27.7344 24.6821 27.9503 24.5926 28.1096 24.4334C28.2688 24.2741 28.3583 24.0582 28.3583 23.833C28.3583 23.6078 28.2688 23.3919 28.1096 23.2326C27.9503 23.0734 27.7344 22.9839 27.5092 22.9839ZM27.5092 27.0934H12.4809C12.2557 27.0934 12.0397 27.1828 11.8805 27.3421C11.7213 27.5013 11.6318 27.7173 11.6318 27.9424C11.6318 28.1676 11.7213 28.3836 11.8805 28.5428C12.0397 28.702 12.2557 28.7915 12.4809 28.7915H27.5092C27.7344 28.7915 27.9503 28.702 28.1096 28.5428C28.2688 28.3836 28.3583 28.1676 28.3583 27.9424C28.3583 27.7173 28.2688 27.5013 28.1096 27.3421C27.9503 27.1828 27.7344 27.0934 27.5092 27.0934ZM27.5092 31.2113H12.4809C12.2557 31.2113 12.0397 31.3008 11.8805 31.46C11.7213 31.6192 11.6318 31.8352 11.6318 32.0604C11.6318 32.2855 11.7213 32.5015 11.8805 32.6607C12.0397 32.82 12.2557 32.9094 12.4809 32.9094H27.5092C27.7344 32.9094 27.9503 32.82 28.1096 32.6607C28.2688 32.5015 28.3583 32.2855 28.3583 32.0604C28.3583 31.8352 28.2688 31.6192 28.1096 31.46C27.9503 31.3008 27.7344 31.2113 27.5092 31.2113ZM27.5092 35.3207H12.4809C12.2557 35.3207 12.0397 35.4102 11.8805 35.5694C11.7213 35.7287 11.6318 35.9446 11.6318 36.1698C11.6318 36.395 11.7213 36.6109 11.8805 36.7702C12.0397 36.9294 12.2557 37.0189 12.4809 37.0189H27.5092C27.7344 37.0189 27.9503 36.9294 28.1096 36.7702C28.2688 36.6109 28.3583 36.395 28.3583 36.1698C28.3583 35.9446 28.2688 35.7287 28.1096 35.5694C27.9503 35.4102 27.7344 35.3207 27.5092 35.3207Z" fill="#E2B542"/>
</svg>
