<svg width="45" height="45" viewBox="0 0 45 45" fill="none" xmlns="http://www.w3.org/2000/svg">
<g clip-path="url(#clip0_35_230)">
<path d="M42.9188 16.125L27.3188 11.8688C24.75 11.1716 22.0117 11.487 19.6688 12.75L12.8063 16.5L2.8125 18.375C2.06982 18.375 1.35727 18.6687 0.830362 19.1921C0.303452 19.7155 0.00495123 20.4261 0 21.1688L0 26.7938C0 27.5397 0.296316 28.2551 0.823762 28.7825C1.35121 29.3099 2.06658 29.6063 2.8125 29.6063H4.6875C4.87178 30.6937 5.43513 31.6809 6.2777 32.3927C7.12027 33.1045 8.18764 33.495 9.29063 33.495C10.3936 33.495 11.461 33.1045 12.3035 32.3927C13.1461 31.6809 13.7095 30.6937 13.8938 29.6063H30.9375C31.1218 30.6937 31.6851 31.6809 32.5277 32.3927C33.3703 33.1045 34.4376 33.495 35.5406 33.495C36.6436 33.495 37.711 33.1045 38.5536 32.3927C39.3961 31.6809 39.9595 30.6937 40.1438 29.6063H42.0188C42.7647 29.6063 43.48 29.3099 44.0075 28.7825C44.5349 28.2551 44.8313 27.5397 44.8313 26.7938V18.75C44.823 18.1684 44.6347 17.6037 44.2922 17.1336C43.9497 16.6634 43.4698 16.3111 42.9188 16.125ZM33.75 15.5813V16.4813H32.4375L31.7063 15L33.75 15.5813ZM20.625 14.4188C22.4288 13.4562 24.5192 13.1766 26.5125 13.6313H26.8875H27.2063L29.3438 14.2125L30.3938 16.3313H16.875L20.625 14.4188ZM9.375 31.6125C8.81874 31.6125 8.27497 31.4476 7.81246 31.1385C7.34995 30.8295 6.98946 30.3902 6.77659 29.8763C6.56372 29.3624 6.50802 28.7969 6.61654 28.2513C6.72506 27.7057 6.99293 27.2046 7.38626 26.8113C7.7796 26.4179 8.28074 26.1501 8.82631 26.0416C9.37188 25.933 9.93738 25.9887 10.4513 26.2016C10.9652 26.4145 11.4045 26.775 11.7135 27.2375C12.0226 27.7 12.1875 28.2437 12.1875 28.8C12.1875 29.5459 11.8912 30.2613 11.3637 30.7887C10.8363 31.3162 10.1209 31.6125 9.375 31.6125ZM35.625 31.6125C35.0687 31.6125 34.525 31.4476 34.0625 31.1385C33.5999 30.8295 33.2395 30.3902 33.0266 29.8763C32.8137 29.3624 32.758 28.7969 32.8665 28.2513C32.9751 27.7057 33.2429 27.2046 33.6363 26.8113C34.0296 26.4179 34.5307 26.1501 35.0763 26.0416C35.6219 25.933 36.1874 25.9887 36.7013 26.2016C37.2152 26.4145 37.6545 26.775 37.9635 27.2375C38.2726 27.7 38.4375 28.2437 38.4375 28.8C38.4375 29.5459 38.1412 30.2613 37.6137 30.7887C37.0863 31.3162 36.3709 31.6125 35.625 31.6125ZM43.125 22.1063H42.1875C41.9389 22.1063 41.7004 22.205 41.5246 22.3808C41.3488 22.5567 41.25 22.7951 41.25 23.0438C41.25 23.2924 41.3488 23.5309 41.5246 23.7067C41.7004 23.8825 41.9389 23.9813 42.1875 23.9813H43.125V26.7938C43.125 27.0424 43.0262 27.2809 42.8504 27.4567C42.6746 27.6325 42.4361 27.7313 42.1875 27.7313H40.1813C39.942 26.7048 39.3625 25.7895 38.5369 25.1342C37.7114 24.4789 36.6884 24.1223 35.6344 24.1223C34.5804 24.1223 33.5574 24.4789 32.7318 25.1342C31.9063 25.7895 31.3268 26.7048 31.0875 27.7313H13.9313C13.692 26.7048 13.1125 25.7895 12.2869 25.1342C11.4614 24.4789 10.4384 24.1223 9.38438 24.1223C8.33038 24.1223 7.3074 24.4789 6.48185 25.1342C5.6563 25.7895 5.07675 26.7048 4.8375 27.7313H2.8125C2.56386 27.7313 2.3254 27.6325 2.14959 27.4567C1.97377 27.2809 1.875 27.0424 1.875 26.7938V23.9813H2.8125C3.06114 23.9813 3.2996 23.8825 3.47541 23.7067C3.65123 23.5309 3.75 23.2924 3.75 23.0438C3.75 22.7951 3.65123 22.5567 3.47541 22.3808C3.2996 22.205 3.06114 22.1063 2.8125 22.1063H1.875V21.1688C1.88199 21.0323 1.91651 20.8987 1.9765 20.776C2.03649 20.6532 2.12069 20.5439 2.22405 20.4545C2.3274 20.3652 2.44777 20.2977 2.5779 20.2561C2.70803 20.2145 2.84524 20.1997 2.98125 20.2125L13.125 18.3563H34.6875C34.9361 18.3563 35.1746 18.2575 35.3504 18.0817C35.5262 17.9059 35.625 17.6674 35.625 17.4188V16.0875L42.4313 17.9625C42.6122 18.0096 42.775 18.1098 42.8987 18.2501C43.0223 18.3904 43.1011 18.5645 43.125 18.75V22.1063ZM29.0625 23.9813H15.9375C15.6889 23.9813 15.4504 24.08 15.2746 24.2558C15.0988 24.4317 15 24.6701 15 24.9188C15 25.1674 15.0988 25.4059 15.2746 25.5817C15.4504 25.7575 15.6889 25.8563 15.9375 25.8563H29.0625C29.3111 25.8563 29.5496 25.7575 29.7254 25.5817C29.9012 25.4059 30 25.1674 30 24.9188C30 24.6701 29.9012 24.4317 29.7254 24.2558C29.5496 24.08 29.3111 23.9813 29.0625 23.9813Z" fill="#E2B542"/>
</g>
<defs>
<clipPath id="clip0_35_230">
<rect width="45" height="45" fill="white"/>
</clipPath>
</defs>
</svg>
