<svg width="45" height="45" viewBox="0 0 45 45" fill="none" xmlns="http://www.w3.org/2000/svg">
<path d="M41.2173 24.3398C41.2023 24.1695 41.1378 24.0072 41.0319 23.873C40.926 23.7387 40.7832 23.6383 40.621 23.584L16.6787 15.5663C16.5238 15.5144 16.3574 15.5068 16.1983 15.5442C16.0392 15.5816 15.8937 15.6627 15.7781 15.7783C15.6626 15.8938 15.5815 16.0393 15.5441 16.1984C15.5066 16.3575 15.5143 16.5239 15.5662 16.6788L23.5839 40.6211C23.6382 40.7833 23.7386 40.9261 23.8728 41.032C24.0071 41.138 24.1694 41.2025 24.3397 41.2175C24.3656 41.2198 24.3916 41.221 24.4173 41.221C24.5752 41.2209 24.7301 41.1784 24.8658 41.0978C25.0015 41.0172 25.113 40.9015 25.1886 40.763L28.8088 34.1272L35.4573 40.7354C35.6223 40.8994 35.8455 40.9913 36.0782 40.991C36.3108 40.9906 36.5339 40.898 36.6984 40.7335L40.7325 36.6994C40.897 36.5349 40.9896 36.3118 40.99 36.0792C40.9903 35.8465 40.8984 35.6232 40.7344 35.4583L34.1262 28.8097L40.7624 25.1895C40.9128 25.1075 41.0359 24.9835 41.1167 24.8326C41.1975 24.6816 41.2325 24.5104 41.2173 24.3398ZM32.2569 27.8262C32.1372 27.8915 32.0343 27.9838 31.9565 28.0958C31.8786 28.2077 31.8279 28.3363 31.8083 28.4712C31.7886 28.6062 31.8007 28.7439 31.8435 28.8734C31.8863 29.0028 31.9586 29.1206 32.0548 29.2173L38.8706 36.0748L36.0757 38.8697L29.2183 32.0539C29.1216 31.9577 29.0039 31.8854 28.8744 31.8426C28.7449 31.7999 28.6072 31.7878 28.4723 31.8074C28.3373 31.827 28.2088 31.8778 28.0968 31.9556C27.9849 32.0335 27.8926 32.1363 27.8272 32.256L24.6113 38.151L17.7936 17.7923L38.1523 24.6099L32.2569 27.8262ZM8.45243 7.20933C8.28759 7.04449 8.06402 6.95189 7.83091 6.95189C7.5978 6.95189 7.37423 7.04449 7.20939 7.20933C7.04455 7.37416 6.95195 7.59773 6.95195 7.83085C6.95195 8.06396 7.04455 8.28753 7.20939 8.45236L10.0658 11.3088C10.1475 11.3904 10.2444 11.4552 10.351 11.4993C10.4576 11.5435 10.5719 11.5662 10.6873 11.5662C10.8028 11.5662 10.9171 11.5435 11.0237 11.4993C11.1303 11.4551 11.2272 11.3904 11.3088 11.3088C11.3904 11.2271 11.4552 11.1303 11.4993 11.0236C11.5435 10.917 11.5662 10.8027 11.5662 10.6873C11.5662 10.5718 11.5435 10.4575 11.4993 10.3509C11.4551 10.2443 11.3904 10.1474 11.3088 10.0658L8.45243 7.20933ZM19.6524 10.7596C19.6839 10.9905 19.8058 11.1996 19.9914 11.3406C20.177 11.4817 20.411 11.5433 20.6419 11.5118C20.8729 11.4803 21.0819 11.3584 21.223 11.1728C21.364 10.9873 21.4256 10.7532 21.3941 10.5223L20.5779 4.53974C20.5623 4.42537 20.5244 4.3152 20.4662 4.2155C20.408 4.11581 20.3308 4.02855 20.2389 3.9587C20.1471 3.88885 20.0423 3.83778 19.9307 3.80841C19.8191 3.77904 19.7028 3.77194 19.5884 3.78753C19.474 3.80311 19.3639 3.84106 19.2642 3.89922C19.1645 3.95738 19.0772 4.03461 19.0073 4.1265C18.9375 4.21838 18.8864 4.32312 18.8571 4.43475C18.8277 4.54637 18.8206 4.66268 18.8362 4.77704L19.6524 10.7596ZM10.7596 19.6524L4.77711 18.8359C4.54614 18.8044 4.31213 18.866 4.12656 19.007C3.94099 19.1481 3.81906 19.3571 3.78759 19.5881C3.75612 19.819 3.81769 20.053 3.95876 20.2386C4.09983 20.4242 4.30883 20.5461 4.5398 20.5776L10.5223 21.3938C10.5621 21.3992 10.6021 21.402 10.6422 21.402C10.8651 21.402 11.0797 21.3173 11.2425 21.1651C11.4053 21.0129 11.5042 20.8045 11.5192 20.5821C11.5341 20.3597 11.464 20.1399 11.3231 19.9672C11.1821 19.7946 10.9808 19.6819 10.7599 19.6521L10.7596 19.6524Z" fill="#E2B542"/>
</svg>
