<svg width="45" height="45" viewBox="0 0 45 45" fill="none" xmlns="http://www.w3.org/2000/svg">
<path fill-rule="evenodd" clip-rule="evenodd" d="M22.5 24.375C27.6797 24.375 31.875 20.1797 31.875 15C31.875 9.82031 27.6797 5.625 22.5 5.625C17.3203 5.625 13.125 9.82031 13.125 15C13.125 20.1797 17.3203 24.375 22.5 24.375ZM30 15C30 19.1441 26.6441 22.5 22.5 22.5C18.3559 22.5 15 19.1441 15 15C15 10.8559 18.3559 7.5 22.5 7.5C26.6441 7.5 30 10.8559 30 15ZM27.2204 26.1322L24.375 34.2608V33.75L23.8364 29.9799C24.182 29.9072 24.4643 29.6432 24.5526 29.2898L25.0213 27.4148C25.1693 26.8232 24.7217 26.25 24.1117 26.25H20.8883C20.2783 26.25 19.8308 26.8232 19.9787 27.4148L20.4474 29.2898C20.5358 29.6432 20.818 29.9072 21.1636 29.9799L20.6369 33.6665L17.7743 26.1213L17.7548 26.0817C17.4694 25.5009 16.8205 25.184 16.1841 25.3392C15.864 25.4173 15.5119 25.4997 15.1398 25.5868C14.2609 25.7925 13.2707 26.0243 12.3308 26.2859C11.0059 26.6547 9.63384 27.12 8.68042 27.7461C6.92488 28.8988 5.625 30.4248 5.625 32.3438V39.375H39.375V32.3438C39.375 30.4248 38.0752 28.8988 36.3196 27.7461C35.3662 27.12 33.9941 26.6547 32.6692 26.2858C31.7291 26.0242 30.7392 25.7925 29.8601 25.5867C29.4881 25.4997 29.1359 25.4172 28.8158 25.3392C28.1794 25.184 27.5306 25.5009 27.2453 26.0817L27.2204 26.1322ZM29.4786 27.4233C29.2511 27.37 29.0278 27.3178 28.81 27.2662L25.2277 37.5H37.5V32.3438C37.5 31.363 36.8399 30.3307 35.2904 29.3134C34.6021 28.8614 33.4805 28.458 32.1663 28.0922C31.2651 27.8413 30.3427 27.6254 29.4795 27.4236L29.4786 27.4233ZM16.2021 27.2632L20.086 37.5H7.5V32.3438C7.5 31.363 8.16013 30.3307 9.70959 29.3134C10.3979 28.8614 11.5195 28.458 12.8337 28.0922C13.7349 27.8413 14.6573 27.6255 15.5204 27.4236C15.7524 27.3693 15.9802 27.3159 16.2021 27.2632Z" fill="#E2B542"/>
</svg>
