<svg width="60" height="60" viewBox="0 0 60 60" fill="none" xmlns="http://www.w3.org/2000/svg">
<path d="M29.0278 36.5869C24.6662 35.7969 22.8178 33.0477 22.8178 27.6769V23.3023C22.8178 23.0983 22.7367 22.9026 22.5925 22.7584C22.4482 22.6141 22.2525 22.5331 22.0485 22.5331C21.8445 22.5331 21.6489 22.6141 21.5046 22.7584C21.3603 22.9026 21.2793 23.0983 21.2793 23.3023V27.6769C21.2793 33.7669 23.6601 37.1777 28.7531 38.1015C28.8001 38.11 28.7508 38.1139 28.7962 38.1139C29.1608 38.1139 29.5324 37.8531 29.5993 37.4815C29.6747 37.0631 29.4454 36.6623 29.0278 36.5869ZM31.0893 39.6154H31.8585C32.0625 39.6154 32.2582 39.5343 32.4025 39.3901C32.5467 39.2458 32.6278 39.0502 32.6278 38.8462C32.6278 38.6421 32.5467 38.4465 32.4025 38.3022C32.2582 38.158 32.0625 38.0769 31.8585 38.0769H31.0893C30.8853 38.0769 30.6896 38.158 30.5454 38.3022C30.4011 38.4465 30.3201 38.6421 30.3201 38.8462C30.3201 39.0502 30.4011 39.2458 30.5454 39.3901C30.6896 39.5343 30.8853 39.6154 31.0893 39.6154Z" fill="#E2B542"/>
<path d="M47.2 31.8115C52.28 30.2992 55.4508 20.8715 55.4508 15.7377C55.4508 13.6969 54.9562 12.2269 53.9415 11.2415C52.3677 9.71462 50.0323 9.78385 47.5577 9.86077C47.5169 9.86154 47.4731 9.86154 47.4323 9.86308V6.37923C47.4323 5.52923 46.5531 5 45.7038 5H16.4731C15.6231 5 15.1246 5.53 15.1246 6.37923V9.97692C14.9732 9.92529 14.8146 9.89802 14.6546 9.89615C14.0492 9.89615 13.4592 9.87769 12.8931 9.86077C10.4231 9.78462 8.08385 9.71462 6.50923 11.2415C5.49385 12.2277 5 13.6977 5 15.7377C5 21.3308 8.76 32.0254 14.6546 32.0254C14.9077 32.0254 15.1431 31.9585 15.3531 31.8492C16.53 38.8608 22.1877 44.7569 28.9715 45.6477V51.9231H19.5508C19.1427 51.9231 18.7514 52.0852 18.4629 52.3737C18.1744 52.6622 18.0123 53.0535 18.0123 53.4615C18.0123 53.8696 18.1744 54.2609 18.4629 54.5494C18.7514 54.8379 19.1427 55 19.5508 55H41.8585C42.2665 55 42.6578 54.8379 42.9463 54.5494C43.2348 54.2609 43.3969 53.8696 43.3969 53.4615C43.3969 53.0535 43.2348 52.6622 42.9463 52.3737C42.6578 52.0852 42.2665 51.9231 41.8585 51.9231H32.0485V45.7531C39.3646 45.4377 45.9131 39.2469 47.2 31.8115ZM8.07692 15.7377C8.07692 14.9485 8.17692 13.9115 8.65154 13.45C9.29231 12.83 10.9962 12.8815 12.8 12.9362C13.3962 12.9546 14.0169 12.9731 14.6546 12.9731C14.82 12.9731 14.9754 12.9408 15.1246 12.8923V29.03C14.9732 28.9784 14.8146 28.9511 14.6546 28.9492C11.6046 28.9485 8.07692 20.9538 8.07692 15.7377ZM47.65 12.9362C49.4562 12.8815 51.1592 12.83 51.7992 13.45C52.2738 13.9115 52.3738 14.9492 52.3738 15.7377C52.3738 20.0338 49.9808 26.2108 47.4323 28.2569V12.94L47.65 12.9362ZM18.2023 29.1708V8.07692H44.3569V10.9062C44.2928 11.075 44.2592 11.254 44.2577 11.4346C44.2577 11.6215 44.2962 11.7977 44.3569 11.9631V29.1708C44.3569 29.4915 44.33 29.81 44.3046 30.1277C44.2769 30.2431 44.2577 30.3623 44.2577 30.4869C44.2577 30.52 44.2654 30.5508 44.2677 30.5838C43.5038 37.0185 37.6631 42.6923 31.4662 42.6923H31.1792C30.9713 42.5887 30.7423 42.5342 30.51 42.5331C30.31 42.5331 30.12 42.5746 29.9446 42.6438C23.6192 42.1462 18.2023 35.8815 18.2023 29.1708Z" fill="#E2B542"/>
</svg>
