<svg width="60" height="60" viewBox="0 0 60 60" fill="none" xmlns="http://www.w3.org/2000/svg">
<g clip-path="url(#clip0_35_288)">
<path d="M57.225 21.5L36.425 15.825C33 14.8954 29.3489 15.316 26.225 17L17.075 22L3.75 24.5C2.75975 24.5 1.8097 24.8916 1.10715 25.5895C0.404602 26.2874 0.00660164 27.2348 0 28.225L0 35.725C0 36.7196 0.395088 37.6734 1.09835 38.3766C1.80161 39.0799 2.75544 39.475 3.75 39.475H6.25C6.49571 40.925 7.24685 42.2411 8.37027 43.1902C9.4937 44.1393 10.9169 44.6599 12.3875 44.6599C13.8581 44.6599 15.2813 44.1393 16.4047 43.1902C17.5282 42.2411 18.2793 40.925 18.525 39.475H41.25C41.4957 40.925 42.2468 42.2411 43.3703 43.1902C44.4937 44.1393 45.9169 44.6599 47.3875 44.6599C48.8582 44.6599 50.2813 44.1393 51.4047 43.1902C52.5282 42.2411 53.2793 40.925 53.525 39.475H56.025C57.0196 39.475 57.9734 39.0799 58.6767 38.3766C59.3799 37.6734 59.775 36.7196 59.775 35.725V25C59.7641 24.2245 59.513 23.4715 59.0563 22.8447C58.5996 22.2179 57.9598 21.7481 57.225 21.5ZM45 20.775V21.975H43.25L42.275 20L45 20.775ZM27.5 19.225C29.905 17.9416 32.6922 17.5688 35.35 18.175H35.85H36.275L39.125 18.95L40.525 21.775H22.5L27.5 19.225ZM12.5 42.15C11.7583 42.15 11.0333 41.9301 10.4166 41.518C9.79993 41.1059 9.31928 40.5203 9.03545 39.8351C8.75162 39.1498 8.67736 38.3958 8.82206 37.6684C8.96675 36.941 9.3239 36.2728 9.84835 35.7483C10.3728 35.2239 11.041 34.8667 11.7684 34.722C12.4958 34.5774 13.2498 34.6516 13.9351 34.9354C14.6203 35.2193 15.206 35.6999 15.618 36.3166C16.0301 36.9333 16.25 37.6583 16.25 38.4C16.25 39.3946 15.8549 40.3484 15.1517 41.0516C14.4484 41.7549 13.4946 42.15 12.5 42.15ZM47.5 42.15C46.7583 42.15 46.0333 41.9301 45.4166 41.518C44.7999 41.1059 44.3193 40.5203 44.0355 39.8351C43.7516 39.1498 43.6774 38.3958 43.8221 37.6684C43.9668 36.941 44.3239 36.2728 44.8484 35.7483C45.3728 35.2239 46.041 34.8667 46.7684 34.722C47.4958 34.5774 48.2498 34.6516 48.9351 34.9354C49.6203 35.2193 50.206 35.6999 50.618 36.3166C51.0301 36.9333 51.25 37.6583 51.25 38.4C51.25 39.3946 50.8549 40.3484 50.1517 41.0516C49.4484 41.7549 48.4946 42.15 47.5 42.15ZM57.5 29.475H56.25C55.9185 29.475 55.6005 29.6067 55.3661 29.8411C55.1317 30.0755 55 30.3935 55 30.725C55 31.0565 55.1317 31.3745 55.3661 31.6089C55.6005 31.8433 55.9185 31.975 56.25 31.975H57.5V35.725C57.5 36.0565 57.3683 36.3745 57.1339 36.6089C56.8995 36.8433 56.5815 36.975 56.25 36.975H53.575C53.256 35.6064 52.4833 34.3859 51.3825 33.5122C50.2818 32.6386 48.9178 32.163 47.5125 32.163C46.1072 32.163 44.7432 32.6386 43.6425 33.5122C42.5417 34.3859 41.769 35.6064 41.45 36.975H18.575C18.256 35.6064 17.4833 34.3859 16.3825 33.5122C15.2818 32.6386 13.9178 32.163 12.5125 32.163C11.1072 32.163 9.7432 32.6386 8.64246 33.5122C7.54173 34.3859 6.769 35.6064 6.45 36.975H3.75C3.41848 36.975 3.10054 36.8433 2.86612 36.6089C2.6317 36.3745 2.5 36.0565 2.5 35.725V31.975H3.75C4.08152 31.975 4.39946 31.8433 4.63388 31.6089C4.8683 31.3745 5 31.0565 5 30.725C5 30.3935 4.8683 30.0755 4.63388 29.8411C4.39946 29.6067 4.08152 29.475 3.75 29.475H2.5V28.225C2.50932 28.0431 2.55535 27.8649 2.63533 27.7013C2.71531 27.5376 2.82759 27.3918 2.9654 27.2727C3.1032 27.1536 3.26369 27.0636 3.4372 27.0081C3.61071 26.9527 3.79365 26.9329 3.975 26.95L17.5 24.475H46.25C46.5815 24.475 46.8995 24.3433 47.1339 24.1089C47.3683 23.8745 47.5 23.5565 47.5 23.225V21.45L56.575 23.95C56.8163 24.0128 57.0334 24.1463 57.1982 24.3334C57.363 24.5205 57.4681 24.7527 57.5 25V29.475ZM38.75 31.975H21.25C20.9185 31.975 20.6005 32.1067 20.3661 32.3411C20.1317 32.5755 20 32.8935 20 33.225C20 33.5565 20.1317 33.8745 20.3661 34.1089C20.6005 34.3433 20.9185 34.475 21.25 34.475H38.75C39.0815 34.475 39.3995 34.3433 39.6339 34.1089C39.8683 33.8745 40 33.5565 40 33.225C40 32.8935 39.8683 32.5755 39.6339 32.3411C39.3995 32.1067 39.0815 31.975 38.75 31.975Z" fill="#E2B542"/>
</g>
<defs>
<clipPath id="clip0_35_288">
<rect width="60" height="60" fill="white"/>
</clipPath>
</defs>
</svg>
