<svg width="60" height="60" viewBox="0 0 60 60" fill="none" xmlns="http://www.w3.org/2000/svg">
<path d="M37.1333 52.8001C24.5333 52.8001 14.2666 42.5334 14.2666 29.9334C14.2666 26.3334 15.0666 22.9334 16.6666 19.8C16.9999 19.1334 17.7999 18.8667 18.4666 19.2C19.1333 19.5334 19.3999 20.3334 19.0666 21C17.6666 23.8 16.9999 26.8001 16.9999 30.0001C16.9999 41.1334 26.0666 50.2001 37.2 50.2001C48.2667 50.1335 57.3334 41.0668 57.3334 29.9334C57.3334 18.8 48.2667 9.73334 37.1333 9.73334C34.8 9.73334 32.5333 10.1333 30.4 10.8667C29.7333 11.1333 28.9333 10.7333 28.6666 10.0667C28.4 9.40001 28.8 8.6 29.4666 8.33334C31.9333 7.46667 34.4667 7 37.0667 7C49.7334 7.06667 60.0001 17.3334 60.0001 29.9334C60.0001 42.5334 49.7334 52.8001 37.1333 52.8001Z" fill="#E2B542"/>
<path d="M37.1333 45.6666C35.0666 45.6666 33.0666 45.2666 31.1999 44.5332C30.5332 44.2665 30.1999 43.4665 30.4666 42.7999C30.7332 42.1332 31.5332 41.7999 32.1999 42.0665C33.7332 42.7332 35.3999 43.0665 37.1333 43.0665C44.3333 43.0665 50.2 37.1999 50.2 29.9998C50.2 23.4665 45.3333 17.8665 38.8666 16.9998C38.1333 16.9331 37.5999 16.2665 37.7333 15.5331C37.7999 14.7998 38.4666 14.2665 39.1999 14.3998C46.9999 15.3331 52.9333 22.0665 52.9333 29.9332C52.9333 38.5999 45.8666 45.6666 37.1333 45.6666Z" fill="#E2B542"/>
<path d="M37.3337 33.6666C35.2004 33.6666 33.4004 31.9333 33.4004 29.7333C33.4004 27.6 35.1337 25.8 37.3337 25.8C39.4671 25.8 41.2671 27.5333 41.2671 29.7333C41.2671 31.9333 39.5337 33.6666 37.3337 33.6666ZM37.3337 28.5333C36.6671 28.5333 36.0671 29.0666 36.0671 29.8C36.0671 30.5333 36.6004 31.0666 37.3337 31.0666C38.0671 31.0666 38.6004 30.5333 38.6004 29.8C38.6004 29.0666 38.0671 28.5333 37.3337 28.5333Z" fill="#E2B542"/>
<path d="M26.0001 43.2666C25.6667 43.2666 25.3334 43.1332 25.0667 42.9332C24.5334 42.4666 24.4667 41.5999 25.0001 41.0666L34.2668 30.9332C34.7334 30.3999 35.6001 30.3332 36.1334 30.8665C36.6668 31.3332 36.7334 32.1999 36.2001 32.7332L27.0001 42.7999C26.7334 43.1333 26.4001 43.2666 26.0001 43.2666Z" fill="#E2B542"/>
<path d="M33.1337 16.6H31.0003C30.267 16.6 29.667 16 29.667 15.2667C29.667 14.5334 30.267 13.9333 31.0003 13.9333H33.1337C33.867 13.9333 34.467 14.5334 34.467 15.2667C34.467 16 33.867 16.6 33.1337 16.6Z" fill="#E2B542"/>
<path d="M25.9336 16.6H11.4002C10.6669 16.6 10.0669 16 10.0669 15.2667C10.0669 14.5334 10.6669 13.9333 11.4002 13.9333H25.9336C26.6669 13.9333 27.2669 14.5334 27.2669 15.2667C27.2669 16 26.6669 16.6 25.9336 16.6Z" fill="#E2B542"/>
<path d="M6.93347 16.6H4.80013C4.0668 16.6 3.4668 16 3.4668 15.2667C3.4668 14.5334 4.0668 13.9333 4.80013 13.9333H6.93347C7.66681 13.9333 8.26681 14.5334 8.26681 15.2667C8.26681 16 7.66681 16.6 6.93347 16.6Z" fill="#E2B542"/>
<path d="M11.3334 11H1.33334C0.600002 11 0 10.4 0 9.66662C0 8.93328 0.600002 8.33328 1.33334 8.33328H11.3334C12.0667 8.33328 12.6667 8.93328 12.6667 9.66662C12.6667 10.4 12.0667 11 11.3334 11Z" fill="#E2B542"/>
<path d="M24 11H18.3333C17.6 11 17 10.4 17 9.66662C17 8.93328 17.6 8.33328 18.3333 8.33328H24C24.7334 8.33328 25.3334 8.93328 25.3334 9.66662C25.3334 10.4 24.7334 11 24 11Z" fill="#E2B542"/>
</svg>
